<svg xmlns="http://www.w3.org/2000/svg" viewBox="0 0 68 68"><g id="Icon"><rect width="68" height="68" fill="none"/><line x1="14" y1="33" x2="14" y2="26" fill="none" stroke="#fff" stroke-linecap="round" stroke-miterlimit="10" stroke-width="4"/><line x1="14" y1="45" x2="14" y2="39" fill="none" stroke="#fff" stroke-linecap="round" stroke-miterlimit="10" stroke-width="4"/><path d="M14,19V12a4,4,0,0,1,4-4H50a4,4,0,0,1,4,4V56a4,4,0,0,1-4,4H18a4,4,0,0,1-4-4V51" fill="none" stroke="#fff" stroke-linecap="round" stroke-miterlimit="10" stroke-width="4"/><line x1="17" y1="33" x2="11" y2="33" fill="none" stroke="#fff" stroke-linecap="round" stroke-miterlimit="10" stroke-width="4"/><line x1="17" y1="20" x2="11" y2="20" fill="none" stroke="#fff" stroke-linecap="round" stroke-miterlimit="10" stroke-width="4"/><line x1="17" y1="45" x2="11" y2="45" fill="none" stroke="#fff" stroke-linecap="round" stroke-miterlimit="10" stroke-width="4"/><path d="M32,32.4a1.64,1.64,0,0,1-.27-1.66c.33-.71,1.1-1,1.42-1.8a2.33,2.33,0,0,0-.1-2.16,10.22,10.22,0,0,0-2-2.76,3,3,0,0,0-3.6.28c-2.42,1.76-2.64,5.37-1.49,7.92a29.32,29.32,0,0,0,4.13,6.19,29.59,29.59,0,0,0,3.81,4.25A8.6,8.6,0,0,0,39,44.52c2.06.11,4.32-.58,5.07-2.7a2.42,2.42,0,0,0-.72-2.47c-1.31-1.44-2.87-3.57-5-2a1.43,1.43,0,0,1-2.06,0Z" fill="#fff"/></g></svg>