<svg xmlns="http://www.w3.org/2000/svg" width="25.974" height="36.288" viewBox="0 0 25.974 36.288">
  <path id="Path_1178" data-name="Path 1178" d="M11.448-13.392h7.344l1.026-9.99H12.474ZM9.18-36.288h3.348a1.021,1.021,0,0,1,.864.351,1.211,1.211,0,0,1,.216.891l-.756,7.452h7.4l.864-8.694h3.348a1.021,1.021,0,0,1,.864.351,1.211,1.211,0,0,1,.216.891l-.756,7.452h2.538a1.339,1.339,0,0,1,.945.324,1.187,1.187,0,0,1,.351.918v2.97H24.354l-1.026,9.99h4a1.339,1.339,0,0,1,.945.324,1.187,1.187,0,0,1,.351.918v2.916H22.95L22.032,0H18.684a1.021,1.021,0,0,1-.864-.351,1.211,1.211,0,0,1-.216-.891l.81-7.992h-7.4L10.1,0H6.75a1.021,1.021,0,0,1-.864-.351,1.211,1.211,0,0,1-.216-.891l.81-7.992H3.942A1.339,1.339,0,0,1,3-9.558a1.187,1.187,0,0,1-.351-.918v-2.916H6.912l1.026-9.99h-4A1.339,1.339,0,0,1,3-23.706a1.187,1.187,0,0,1-.351-.918v-2.97h5.67Z" transform="translate(-2.646 36.288)" fill="#fcfcfc"/>
</svg>
