<svg xmlns="http://www.w3.org/2000/svg" viewBox="0 0 144 144"><defs><style>.cls-1,.cls-2,.cls-3{fill:none;}.cls-2,.cls-3{stroke:#fff;stroke-linecap:round;stroke-width:4px;}.cls-2{stroke-miterlimit:10;}.cls-3{stroke-linejoin:round;}.cls-4{fill:#fff;}</style></defs><title>copy_warning</title><g id="Layer_2" data-name="Layer 2"><g id="Icon"><rect class="cls-1" width="144" height="144"/><rect class="cls-1" width="144" height="144"/><path class="cls-2" d="M120,49H101a6,6,0,0,1-6-6V23"/><path class="cls-2" d="M72,106H67a6,6,0,0,1-6-6V80"/><path class="cls-2" d="M61,55V28a6,6,0,0,1,6-6H93.34a4,4,0,0,1,2.83,1.17l24.66,24.66A4,4,0,0,1,122,50.66V71"/><line class="cls-2" x1="54" y1="68" x2="89" y2="68"/><line class="cls-2" x1="34" y1="68" x2="44" y2="68"/><path class="cls-2" d="M51,38H28a6,6,0,0,0-6,6v72a6,6,0,0,0,6,6H75"/><g id="back"><polyline class="cls-3" points="79 81 90 68 79 55"/></g><line class="cls-2" x1="34" y1="81" x2="49" y2="81"/><line class="cls-2" x1="34" y1="95" x2="49" y2="95"/><path class="cls-4" d="M94.64,117.11H123l-14.2-27.94Zm14.2-2.67a2.36,2.36,0,1,1,2.36-2.36A2.36,2.36,0,0,1,108.84,114.44Zm2.36-13.6v4.48a2.36,2.36,0,0,1-4.72,0v-4.48a2.36,2.36,0,0,1,4.72,0Z"/><path class="cls-4" d="M108.84,76.4a28.71,28.71,0,1,0,28.7,28.71A28.7,28.7,0,0,0,108.84,76.4Zm16.4,44.71H92.44a2.72,2.72,0,0,1-2.29-4L106.8,84.35a2.3,2.3,0,0,1,4.08,0l16.65,32.75A2.72,2.72,0,0,1,125.24,121.11Z"/></g></g></svg>