<svg xmlns="http://www.w3.org/2000/svg" viewBox="0 0 144 144"><defs><style>.cls-1{fill:#fff;}.cls-2,.cls-3,.cls-4{fill:none;}.cls-3,.cls-4{stroke:#fff;stroke-linecap:round;stroke-width:4px;}.cls-3{stroke-miterlimit:10;}.cls-4{stroke-linejoin:round;}</style></defs><title>copy_locked</title><g id="Layer_2" data-name="Layer 2"><g id="Icon"><path class="cls-1" d="M116.27,91.94a4,4,0,0,0-4-4h-7a4,4,0,0,0-4,4v4.92h15Z"/><path class="cls-1" d="M118,100.86H99.57a4,4,0,0,0-4,4v13.08a4,4,0,0,0,4,4H118a4,4,0,0,0,4-4V104.86A4,4,0,0,0,118,100.86Zm-7.2,12.29v4.71a2,2,0,0,1-4,0v-4.71a3.52,3.52,0,1,1,4,0Z"/><path class="cls-1" d="M108.77,76.23a28.71,28.71,0,1,0,28.7,28.71A28.71,28.71,0,0,0,108.77,76.23ZM126,117.94a8,8,0,0,1-8,8H99.57a8,8,0,0,1-8-8V104.86a8,8,0,0,1,5.7-7.66V91.94a8,8,0,0,1,8-8h7a8,8,0,0,1,8,8V97.2a8,8,0,0,1,5.7,7.66Z"/><rect class="cls-2" width="144" height="144"/><rect class="cls-2" width="144" height="144"/><path class="cls-3" d="M120,49H101a6,6,0,0,1-6-6V23"/><path class="cls-3" d="M72,106H67a6,6,0,0,1-6-6V80"/><path class="cls-3" d="M61,55V28a6,6,0,0,1,6-6H93.34a4,4,0,0,1,2.83,1.17l24.66,24.66A4,4,0,0,1,122,50.66V71"/><line class="cls-3" x1="54" y1="68" x2="89" y2="68"/><line class="cls-3" x1="34" y1="68" x2="44" y2="68"/><path class="cls-3" d="M51,38H28a6,6,0,0,0-6,6v72a6,6,0,0,0,6,6H75"/><g id="back"><polyline class="cls-4" points="79 81 90 68 79 55"/></g><line class="cls-3" x1="34" y1="81" x2="49" y2="81"/><line class="cls-3" x1="34" y1="95" x2="49" y2="95"/></g></g></svg>