<svg xmlns="http://www.w3.org/2000/svg" viewBox="0 0 144 144"><defs><style>.cls-1,.cls-2,.cls-3{fill:none;}.cls-2,.cls-3{stroke:#fff;stroke-linecap:round;stroke-width:4px;}.cls-2{stroke-miterlimit:10;}.cls-3{stroke-linejoin:round;}</style></defs><title>copy_normal</title><g id="Layer_2" data-name="Layer 2"><g id="Icon"><rect class="cls-1" width="144" height="144"/><path class="cls-2" d="M120,49H101a6,6,0,0,1-6-6V23"/><path class="cls-2" d="M61,55V28a6,6,0,0,1,6-6H93.34a4,4,0,0,1,2.83,1.17l24.66,24.66A4,4,0,0,1,122,50.66V100a6,6,0,0,1-6,6H67a6,6,0,0,1-6-6V80"/><line class="cls-2" x1="54" y1="68" x2="89" y2="68"/><line class="cls-2" x1="34" y1="68" x2="44" y2="68"/><path class="cls-2" d="M51,38H28a6,6,0,0,0-6,6v72a6,6,0,0,0,6,6H76a6,6,0,0,0,6-6"/><g id="back"><polyline class="cls-3" points="79 81 90 68 79 55"/></g><line class="cls-2" x1="34" y1="81" x2="49" y2="81"/><line class="cls-2" x1="34" y1="95" x2="49" y2="95"/></g></g></svg>