<svg id="Icon" xmlns="http://www.w3.org/2000/svg" viewBox="0 0 68 68"><rect width="68" height="68" fill="none"/><path d="M57,21H48a4,4,0,0,1-4-4V9" fill="none" stroke="#fff" stroke-linecap="round" stroke-miterlimit="10" stroke-width="4"/><path d="M29,23V12a4,4,0,0,1,4-4H43.17a2,2,0,0,1,1.42.59L56.41,20.41A2,2,0,0,1,57,21.83V42a4,4,0,0,1-4,4H33a4,4,0,0,1-4-4V39" fill="none" stroke="#fff" stroke-linecap="round" stroke-miterlimit="10" stroke-width="4"/><line x1="22" y1="31" x2="42" y2="31" fill="none" stroke="#fff" stroke-linecap="round" stroke-miterlimit="10" stroke-width="4"/><path d="M21,17.5H15a4,4,0,0,0-4,4V53a4,4,0,0,0,4,4H35a4,4,0,0,0,4-4h0" fill="none" stroke="#fff" stroke-linecap="round" stroke-miterlimit="10" stroke-width="4"/><g id="back"><polyline points="37.31 37.25 42.5 31.11 37.31 24.97" fill="none" stroke="#fff" stroke-linecap="round" stroke-linejoin="round" stroke-width="4"/></g></svg>