<svg xmlns="http://www.w3.org/2000/svg" viewBox="0 0 160 160"><defs><style>.cls-1{fill:#fff;}</style></defs><title>copy_disabled_pressed</title><g id="Layer_2" data-name="Layer 2"><g id="Icon"><path class="cls-1" d="M117,93a20,20,0,1,0,20,20A20,20,0,0,0,117,93Zm0,36a16,16,0,0,1-15.86-14h31.72A16,16,0,0,1,117,129Zm-15.86-18a16,16,0,0,1,31.72,0Z"/><path class="cls-1" d="M80,0a80,80,0,1,0,80,80A80,80,0,0,0,80,0ZM67,36a8,8,0,0,1,8-8h26.34a6,6,0,0,1,4.25,1.76l24.65,24.65A6,6,0,0,1,132,58.66V79a2,2,0,0,1-4,0V59H109a8,8,0,0,1-8-8V32H75a4,4,0,0,0-4,4V63a2,2,0,0,1-4,0Zm16,96H36a8,8,0,0,1-8-8V52a8,8,0,0,1,8-8H59a2,2,0,0,1,0,4H36a4,4,0,0,0-4,4v72a4,4,0,0,0,4,4H83a2,2,0,0,1,0,4ZM57,91H42a2,2,0,0,1,0-4H57a2,2,0,0,1,0,4Zm2,12a2,2,0,0,1-2,2H42a2,2,0,0,1,0-4H57A2,2,0,0,1,59,103ZM40,76a2,2,0,0,1,2-2H52a2,2,0,0,1,0,4H42A2,2,0,0,1,40,76Zm35,36h5a2,2,0,1,1,0,4H75a8,8,0,0,1-8-8V88a2,2,0,0,1,4,0v20A4,4,0,0,0,75,112ZM85.71,90.53a2,2,0,0,1-.24-2.82L93.69,78H62a2,2,0,0,1,0-4H93.69l-8.22-9.71a2,2,0,1,1,3.06-2.58l11,13a2,2,0,0,1,0,2.58l-11,13a2,2,0,0,1-2.82.24Zm31.13,51.28a28.71,28.71,0,1,1,28.7-28.7A28.7,28.7,0,0,1,116.84,141.81Z"/><path class="cls-1" d="M109,55h16.17L105,34.83V51A4,4,0,0,0,109,55Z"/></g></g></svg>