<svg id="Icon" xmlns="http://www.w3.org/2000/svg" viewBox="0 0 144 144"><rect width="144" height="144" fill="none"/><path d="M98,74h8" fill="none" stroke="#fff" stroke-linecap="round" stroke-miterlimit="10" stroke-width="4"/><path d="M98,86h8" fill="none" stroke="#fff" stroke-linecap="round" stroke-miterlimit="10" stroke-width="4"/><path d="M98,97h8" fill="none" stroke="#fff" stroke-linecap="round" stroke-miterlimit="10" stroke-width="4"/><path d="M76,74h8" fill="none" stroke="#fff" stroke-linecap="round" stroke-miterlimit="10" stroke-width="4"/><path d="M76,86h8" fill="none" stroke="#fff" stroke-linecap="round" stroke-miterlimit="10" stroke-width="4"/><path d="M76,97h8" fill="none" stroke="#fff" stroke-linecap="round" stroke-miterlimit="10" stroke-width="4"/><path d="M54,74h8" fill="none" stroke="#fff" stroke-linecap="round" stroke-miterlimit="10" stroke-width="4"/><path d="M54,86h8" fill="none" stroke="#fff" stroke-linecap="round" stroke-miterlimit="10" stroke-width="4"/><path d="M54,97h8" fill="none" stroke="#fff" stroke-linecap="round" stroke-miterlimit="10" stroke-width="4"/><path d="M58,58V34a6,6,0,0,1,6-6H96a6,6,0,0,1,6,6V58" fill="none" stroke="#fff" stroke-miterlimit="10" stroke-width="4"/><path d="M110,59H48" fill="none" stroke="#fff" stroke-linecap="round" stroke-miterlimit="10" stroke-width="4"/><path d="M36,48.5v67" fill="none" stroke="#fff" stroke-miterlimit="10" stroke-width="4"/><path d="M46,49H28a6,6,0,0,0-6,6v55a6,6,0,0,0,6,6h88a6,6,0,0,0,6-6V55a6,6,0,0,0-6-6h-4" fill="none" stroke="#fff" stroke-linecap="round" stroke-miterlimit="10" stroke-width="4"/></svg>