<svg xmlns="http://www.w3.org/2000/svg" viewBox="0 0 144 144"><defs><style>.cls-1,.cls-2,.cls-3{fill:none;}.cls-2,.cls-3{stroke:#fff;stroke-miterlimit:10;stroke-width:4px;}.cls-2{stroke-linecap:round;}</style></defs><title>fax_l</title><g id="Layer_2" data-name="Layer 2"><g id="Icon"><rect class="cls-1" width="144" height="144"/><path class="cls-2" d="M98,74h8"/><path class="cls-2" d="M98,86h8"/><path class="cls-2" d="M98,97h8"/><path class="cls-2" d="M76,74h8"/><path class="cls-2" d="M76,86h8"/><path class="cls-2" d="M76,97h8"/><path class="cls-2" d="M54,74h8"/><path class="cls-2" d="M54,86h8"/><path class="cls-2" d="M54,97h8"/><path class="cls-3" d="M58,58V34a6,6,0,0,1,6-6H96a6,6,0,0,1,6,6V58"/><path class="cls-2" d="M110,59H48"/><path class="cls-3" d="M36,48.5v67"/><path class="cls-2" d="M46,49H28a6,6,0,0,0-6,6v55a6,6,0,0,0,6,6h88a6,6,0,0,0,6-6V55a6,6,0,0,0-6-6h-4"/></g></g></svg>