<svg xmlns="http://www.w3.org/2000/svg" viewBox="0 0 160 160"><defs><style>.cls-1{fill:#fff;}</style></defs><title>fax_normal_pressed</title><g id="Layer_2" data-name="Layer 2"><g id="Icon"><path class="cls-1" d="M32,63v55a4,4,0,0,0,4,4h6V59H36A4,4,0,0,0,32,63Z"/><path class="cls-1" d="M108,42a4,4,0,0,0-4-4H72a4,4,0,0,0-4,4V65h40Z"/><path class="cls-1" d="M80,0a80,80,0,1,0,80,80A80,80,0,0,0,80,0ZM64,42a8,8,0,0,1,8-8h32a8,8,0,0,1,8,8V65h6a2,2,0,0,1,0,4H56a2,2,0,0,1,0-4h8Zm50,54h-8a2,2,0,0,1,0-4h8a2,2,0,0,1,0,4Zm2,9a2,2,0,0,1-2,2h-8a2,2,0,0,1,0-4h8A2,2,0,0,1,116,105Zm-2-21h-8a2,2,0,0,1,0-4h8a2,2,0,0,1,0,4ZM92,96H84a2,2,0,0,1,0-4h8a2,2,0,0,1,0,4Zm2,9a2,2,0,0,1-2,2H84a2,2,0,0,1,0-4h8A2,2,0,0,1,94,105ZM92,84H84a2,2,0,0,1,0-4h8a2,2,0,0,1,0,4ZM70,96H62a2,2,0,0,1,0-4h8a2,2,0,0,1,0,4Zm2,9a2,2,0,0,1-2,2H62a2,2,0,0,1,0-4h8A2,2,0,0,1,72,105ZM70,84H62a2,2,0,0,1,0-4h8a2,2,0,0,1,0,4Zm62,34a8,8,0,0,1-8,8H36a8,8,0,0,1-8-8V63a8,8,0,0,1,8-8H54a2,2,0,0,1,0,4H46v63h78a4,4,0,0,0,4-4V63a4,4,0,0,0-4-4h-4a2,2,0,0,1,0-4h4a8,8,0,0,1,8,8Z"/></g></g></svg>