<svg xmlns="http://www.w3.org/2000/svg" viewBox="0 0 160 160"><defs><style>.cls-1{fill:#fff;}</style></defs><title>fax_locked_pressed</title><g id="Layer_2" data-name="Layer 2"><g id="Icon"><path class="cls-1" d="M108,42a4,4,0,0,0-4-4H72a4,4,0,0,0-4,4V65h40Z"/><path class="cls-1" d="M80,0a80,80,0,1,0,80,80A80,80,0,0,0,80,0Zm40,55h4a8,8,0,0,1,8,8V79a2,2,0,0,1-4,0V63a4,4,0,0,0-4-4h-4a2,2,0,0,1,0-4ZM64,42a8,8,0,0,1,8-8h32a8,8,0,0,1,8,8V65h6a2,2,0,0,1,0,4H56a2,2,0,0,1,0-4h8ZM94,82a2,2,0,0,1-2,2H84a2,2,0,0,1,0-4h8A2,2,0,0,1,94,82ZM70,96H62a2,2,0,0,1,0-4h8a2,2,0,0,1,0,4Zm2,9a2,2,0,0,1-2,2H62a2,2,0,0,1,0-4h8A2,2,0,0,1,72,105ZM70,84H62a2,2,0,0,1,0-4h8a2,2,0,0,1,0,4Zm12,42H36a8,8,0,0,1-8-8V63a8,8,0,0,1,8-8H54a2,2,0,0,1,0,4H46v63H82a2,2,0,0,1,0,4Zm2-30a2,2,0,0,1,0-4h3a2,2,0,0,1,0,4Zm32.84,45.81a28.71,28.71,0,1,1,28.7-28.7A28.7,28.7,0,0,1,116.84,141.81Z"/><path class="cls-1" d="M32,63v55a4,4,0,0,0,4,4h6V59H36A4,4,0,0,0,32,63Z"/><path class="cls-1" d="M128.27,105.2V99.94a8,8,0,0,0-8-8h-7a8,8,0,0,0-8,8v5.26a8,8,0,0,0-5.7,7.66v13.08a8,8,0,0,0,8,8H126a8,8,0,0,0,8-8V112.86A8,8,0,0,0,128.27,105.2Zm-19-5.26a4,4,0,0,1,4-4h7a4,4,0,0,1,4,4v4.92h-15Zm20.7,26a4,4,0,0,1-4,4h-18.4a4,4,0,0,1-4-4V112.86a4,4,0,0,1,4-4H126a4,4,0,0,1,4,4Z"/><path class="cls-1" d="M116.77,114.74a3.52,3.52,0,0,0-2,6.41v4.71a2,2,0,0,0,4,0v-4.71a3.52,3.52,0,0,0-2-6.41Z"/></g></g></svg>