<svg xmlns="http://www.w3.org/2000/svg" viewBox="0 0 144 144"><defs><style>.cls-1{fill:#fff;}.cls-2,.cls-3,.cls-4{fill:none;}.cls-3,.cls-4{stroke:#fff;stroke-miterlimit:10;stroke-width:4px;}.cls-3{stroke-linecap:round;}</style></defs><title>fax_locked</title><g id="Layer_2" data-name="Layer 2"><g id="Icon"><path class="cls-1" d="M116.27,91.94a4,4,0,0,0-4-4h-7a4,4,0,0,0-4,4v4.92h15Z"/><path class="cls-1" d="M118,100.86H99.57a4,4,0,0,0-4,4v13.08a4,4,0,0,0,4,4H118a4,4,0,0,0,4-4V104.86A4,4,0,0,0,118,100.86Zm-7.2,12.29v4.71a2,2,0,0,1-4,0v-4.71a3.52,3.52,0,1,1,4,0Z"/><path class="cls-1" d="M108.77,76.23a28.71,28.71,0,1,0,28.7,28.71A28.71,28.71,0,0,0,108.77,76.23ZM126,117.94a8,8,0,0,1-8,8H99.57a8,8,0,0,1-8-8V104.86a8,8,0,0,1,5.7-7.66V91.94a8,8,0,0,1,8-8h7a8,8,0,0,1,8,8V97.2a8,8,0,0,1,5.7,7.66Z"/><rect class="cls-2" width="144" height="144"/><path class="cls-3" d="M76,74h8"/><path class="cls-3" d="M76,86h3"/><path class="cls-3" d="M54,74h8"/><path class="cls-3" d="M54,86h8"/><path class="cls-3" d="M54,97h8"/><path class="cls-4" d="M58,58V34a6,6,0,0,1,6-6H96a6,6,0,0,1,6,6V58"/><path class="cls-3" d="M110,59H48"/><path class="cls-4" d="M36,48.5v67"/><path class="cls-3" d="M122,71V55a6,6,0,0,0-6-6h-4"/><path class="cls-3" d="M46,49H28a6,6,0,0,0-6,6v55a6,6,0,0,0,6,6H74"/></g></g></svg>