<svg xmlns="http://www.w3.org/2000/svg" viewBox="0 0 144 144"><defs><style>.cls-1{fill:#fff;}.cls-2,.cls-3,.cls-4{fill:none;}.cls-3,.cls-4{stroke:#fff;stroke-miterlimit:10;stroke-width:4px;}.cls-3{stroke-linecap:round;}</style></defs><title>fax_warning</title><g id="Layer_2" data-name="Layer 2"><g id="Icon"><path class="cls-1" d="M94.64,117.11H123l-14.2-27.94Zm14.2-2.67a2.36,2.36,0,1,1,2.36-2.36A2.36,2.36,0,0,1,108.84,114.44Zm2.36-13.6v4.48a2.36,2.36,0,0,1-4.72,0v-4.48a2.36,2.36,0,0,1,4.72,0Z"/><path class="cls-1" d="M108.84,76.4a28.71,28.71,0,1,0,28.7,28.71A28.7,28.7,0,0,0,108.84,76.4Zm16.4,44.71H92.44a2.72,2.72,0,0,1-2.29-4L106.8,84.35a2.3,2.3,0,0,1,4.08,0l16.65,32.75A2.72,2.72,0,0,1,125.24,121.11Z"/><rect class="cls-2" width="144" height="144"/><path class="cls-3" d="M76,74h8"/><path class="cls-3" d="M76,86h3"/><path class="cls-3" d="M54,74h8"/><path class="cls-3" d="M54,86h8"/><path class="cls-3" d="M54,97h8"/><path class="cls-4" d="M58,58V34a6,6,0,0,1,6-6H96a6,6,0,0,1,6,6V58"/><path class="cls-3" d="M110,59H48"/><path class="cls-4" d="M36,48.5v67"/><path class="cls-3" d="M122,71V55a6,6,0,0,0-6-6h-4"/><path class="cls-3" d="M46,49H28a6,6,0,0,0-6,6v55a6,6,0,0,0,6,6H74"/></g></g></svg>