<svg xmlns="http://www.w3.org/2000/svg" viewBox="0 0 160 160"><defs><style>.cls-1{fill:#fff;}</style></defs><title>fax_warning_pressed</title><g id="Layer_2" data-name="Layer 2"><g id="Icon"><path class="cls-1" d="M80,0a80,80,0,1,0,80,80A80,80,0,0,0,80,0Zm40,55h4a8,8,0,0,1,8,8V79a2,2,0,0,1-4,0V63a4,4,0,0,0-4-4h-4a2,2,0,0,1,0-4ZM64,42a8,8,0,0,1,8-8h32a8,8,0,0,1,8,8V65h6a2,2,0,0,1,0,4H56a2,2,0,0,1,0-4h8ZM94,82a2,2,0,0,1-2,2H84a2,2,0,0,1,0-4h8A2,2,0,0,1,94,82ZM70,96H62a2,2,0,0,1,0-4h8a2,2,0,0,1,0,4Zm2,9a2,2,0,0,1-2,2H62a2,2,0,0,1,0-4h8A2,2,0,0,1,72,105ZM70,84H62a2,2,0,0,1,0-4h8a2,2,0,0,1,0,4Zm12,42H36a8,8,0,0,1-8-8V63a8,8,0,0,1,8-8H54a2,2,0,0,1,0,4H46v63H82a2,2,0,0,1,0,4Zm2-30a2,2,0,0,1,0-4h3a2,2,0,0,1,0,4Zm32.84,45.81a28.71,28.71,0,1,1,28.7-28.7A28.7,28.7,0,0,1,116.84,141.81Z"/><path class="cls-1" d="M108,42a4,4,0,0,0-4-4H72a4,4,0,0,0-4,4V65h40Z"/><path class="cls-1" d="M32,63v55a4,4,0,0,0,4,4h6V59H36A4,4,0,0,0,32,63Z"/><path class="cls-1" d="M116.84,117.72a2.36,2.36,0,1,0,2.36,2.36A2.36,2.36,0,0,0,116.84,117.72Z"/><path class="cls-1" d="M114.48,108.84v4.48a2.36,2.36,0,0,0,4.72,0v-4.48a2.36,2.36,0,0,0-4.72,0Z"/><path class="cls-1" d="M118.88,92.35a2.3,2.3,0,0,0-4.08,0L98.15,125.1a2.72,2.72,0,0,0,2.29,4h32.8a2.72,2.72,0,0,0,2.29-4Zm-16.24,32.76,14.2-27.94L131,125.11Z"/></g></g></svg>