<svg xmlns="http://www.w3.org/2000/svg" viewBox="0 0 144 144"><defs><style>.cls-1,.cls-2,.cls-3{fill:none;}.cls-2,.cls-3{stroke:#fff;stroke-miterlimit:10;stroke-width:4px;}.cls-2{stroke-linecap:round;}.cls-4{fill:#fff;}</style></defs><title>fax_disabled</title><g id="Layer_2" data-name="Layer 2"><g id="Icon"><rect class="cls-1" width="144" height="144"/><path class="cls-2" d="M76,74h8"/><path class="cls-2" d="M76,86h3"/><path class="cls-2" d="M54,74h8"/><path class="cls-2" d="M54,86h8"/><path class="cls-2" d="M54,97h8"/><path class="cls-3" d="M58,58V34a6,6,0,0,1,6-6H96a6,6,0,0,1,6,6V58"/><path class="cls-2" d="M110,59H48"/><path class="cls-3" d="M36,48.5v67"/><path class="cls-2" d="M122,71V55a6,6,0,0,0-6-6h-4"/><path class="cls-2" d="M46,49H28a6,6,0,0,0-6,6v55a6,6,0,0,0,6,6H74"/><path class="cls-4" d="M109,121a16,16,0,0,0,15.86-14H93.14A16,16,0,0,0,109,121Z"/><path class="cls-4" d="M109,89a16,16,0,0,0-15.86,14h31.72A16,16,0,0,0,109,89Z"/><path class="cls-4" d="M109,76.3A28.7,28.7,0,1,0,137.7,105,28.7,28.7,0,0,0,109,76.3Zm0,48.7a20,20,0,1,1,20-20A20,20,0,0,1,109,125Z"/></g></g></svg>