<svg xmlns="http://www.w3.org/2000/svg" viewBox="0 0 68 68"><g id="Deliverd"><rect width="68" height="68" fill="none"/><path d="M46,40h4" fill="none" stroke="#fff" stroke-linecap="round" stroke-miterlimit="10" stroke-width="4"/><path d="M46,48h4" fill="none" stroke="#fff" stroke-linecap="round" stroke-miterlimit="10" stroke-width="4"/><path d="M34,40h4" fill="none" stroke="#fff" stroke-linecap="round" stroke-miterlimit="10" stroke-width="4"/><path d="M34,48h4" fill="none" stroke="#fff" stroke-linecap="round" stroke-miterlimit="10" stroke-width="4"/><path d="M22,40h4" fill="none" stroke="#fff" stroke-linecap="round" stroke-miterlimit="10" stroke-width="4"/><path d="M22,48h4" fill="none" stroke="#fff" stroke-linecap="round" stroke-miterlimit="10" stroke-width="4"/><path d="M24,30V15a4,4,0,0,1,4-4H44a4,4,0,0,1,4,4V30" fill="none" stroke="#fff" stroke-miterlimit="10" stroke-width="4"/><path d="M54,32H18" fill="none" stroke="#fff" stroke-linecap="round" stroke-miterlimit="10" stroke-width="4"/><path d="M17,23H12a4,4,0,0,0-4,4V53a4,4,0,0,0,4,4H56a4,4,0,0,0,4-4V27a4,4,0,0,0-4-4H55" fill="none" stroke="#fff" stroke-linecap="round" stroke-miterlimit="10" stroke-width="4"/><line x1="31" y1="18" x2="41" y2="18" fill="none" stroke="#fff" stroke-linecap="round" stroke-miterlimit="10" stroke-width="4"/><line x1="31" y1="25" x2="35" y2="25" fill="none" stroke="#fff" stroke-linecap="round" stroke-miterlimit="10" stroke-width="4"/></g></svg>