<?xml version="1.0" encoding="utf-8"?>
<!-- Generator: Adobe Illustrator 23.1.0, SVG Export Plug-In . SVG Version: 6.00 Build 0)  -->
<svg version="1.1" xmlns="http://www.w3.org/2000/svg" xmlns:xlink="http://www.w3.org/1999/xlink" x="0px" y="0px"
	 viewBox="0 0 68 68" style="enable-background:new 0 0 68 68;" xml:space="preserve">
<style type="text/css">
	.st0{display:none;}
	.st1{display:inline;}
	.st2{fill:none;stroke:#FF0000;stroke-width:8.000000e-02;stroke-miterlimit:10;}
	.st3{opacity:0.37;fill:#FF0000;}
	.st4{fill:none;stroke:#FF0000;stroke-width:0.1;stroke-miterlimit:10;}
	.st5{display:inline;opacity:0.37;}
	.st6{fill:none;stroke:#FFFFFF;stroke-width:4;stroke-miterlimit:10;}
	.st7{opacity:0.3;}
	.st8{fill:#FFFFFF;}
	.st9{opacity:0.7;}
	.st10{opacity:0.5;fill:#FF0000;}
	.st11{fill:none;stroke:#FF0000;stroke-width:6.000000e-02;stroke-miterlimit:10;}
	.st12{fill:none;stroke:#FF0000;stroke-width:2.833333e-02;stroke-miterlimit:10;}
	.st13{display:inline;fill:none;}
	.st14{display:inline;opacity:0.37;fill:#FF0000;}
	.st15{fill:none;stroke:#FF0000;stroke-width:4.002251e-02;stroke-miterlimit:10;}
	.st16{fill:none;stroke:#FF0000;stroke-width:4.002224e-02;stroke-miterlimit:10;}
	.st17{display:inline;fill:none;stroke:#FF0000;stroke-width:0.1;stroke-miterlimit:10;}
	.st18{fill:none;}
	.st19{fill:none;stroke:#FFFFFF;stroke-width:2;stroke-linecap:round;stroke-linejoin:round;stroke-miterlimit:10;}
	.st20{fill:none;stroke:#FFFFFF;stroke-width:2;stroke-linecap:round;stroke-miterlimit:10;}
	.st21{fill:#7EC7FC;stroke:#FFFFFF;stroke-width:2;stroke-linecap:round;stroke-miterlimit:10;}
	.st22{fill:none;stroke:#FFFFFF;stroke-width:4;stroke-linecap:round;stroke-miterlimit:10;}
	.st23{fill-rule:evenodd;clip-rule:evenodd;fill:none;stroke:#FFFFFF;stroke-width:4;stroke-linecap:round;stroke-miterlimit:10;}
	.st24{fill:none;stroke:#FFFFFF;stroke-width:4;stroke-linecap:round;stroke-linejoin:round;stroke-miterlimit:10;}
	.st25{fill:#FFFFFF;stroke:#FFFFFF;stroke-width:4;stroke-linecap:round;stroke-linejoin:round;stroke-miterlimit:10;}
	.st26{fill:none;stroke:#000000;stroke-width:4;stroke-linecap:round;stroke-linejoin:round;stroke-miterlimit:10;}
	.st27{fill:#FFFFFF;stroke:#FFFFFF;stroke-width:4;stroke-miterlimit:10;}
	.st28{fill:none;stroke:#FFFFFF;stroke-width:4;stroke-linecap:round;stroke-linejoin:round;}
	.st29{fill-rule:evenodd;clip-rule:evenodd;fill:none;stroke:#FFFFFF;stroke-width:2;stroke-linecap:round;stroke-miterlimit:10;}
	.st30{fill:none;stroke:#FFFFFF;stroke-width:2;stroke-miterlimit:10;}
	.st31{fill-rule:evenodd;clip-rule:evenodd;fill:none;stroke:#FFFFFF;stroke-width:2;stroke-miterlimit:10;}
	.st32{fill:none;stroke:#FFFFFF;stroke-width:4;stroke-linecap:round;stroke-linejoin:round;stroke-dasharray:7.7535,7.7535;}
	.st33{display:none;fill:none;stroke:#FFFFFF;stroke-width:4;stroke-linecap:round;stroke-linejoin:round;stroke-miterlimit:10;}
	.st34{fill:#FFFFFF;enable-background:new    ;}
	.st35{fill-rule:evenodd;clip-rule:evenodd;fill:none;stroke:#FFFFFF;stroke-width:4;stroke-miterlimit:10;}
	
		.st36{fill-rule:evenodd;clip-rule:evenodd;fill:none;stroke:#FCFCFC;stroke-width:4;stroke-linecap:round;stroke-linejoin:round;stroke-miterlimit:10;}
	.st37{fill:none;stroke:#EF7700;stroke-width:2;stroke-miterlimit:10;}
	.st38{opacity:0.15;fill:#FF0000;}
	.st39{fill:none;stroke:#FF0000;stroke-width:2.001000e-02;stroke-miterlimit:10;}
	.st40{fill:none;stroke:#FF0000;stroke-width:2.001126e-02;stroke-miterlimit:10;}
	.st41{fill:none;stroke:#FF0000;stroke-width:2.001112e-02;stroke-miterlimit:10;}
	.st42{fill:none;stroke:#FF0000;stroke-width:4.000000e-02;stroke-miterlimit:10;}
	.st43{fill:none;stroke:#FFFFFF;stroke-width:2;stroke-linecap:round;stroke-linejoin:round;}
	.st44{fill:none;stroke:#FFFFFF;stroke-width:2;stroke-linejoin:round;}
	.st45{fill:none;stroke:#FFFFFF;stroke-width:1.5;stroke-miterlimit:10;}
	.st46{fill-rule:evenodd;clip-rule:evenodd;fill:#FFFFFF;stroke:#FFFFFF;stroke-width:2;stroke-miterlimit:10;}
	.st47{fill:#3CC5FF;stroke:#3CC5FF;stroke-width:2;stroke-linecap:round;stroke-linejoin:round;stroke-miterlimit:10;}
	.st48{fill:none;stroke:#FFFFFF;stroke-width:3.7;stroke-linecap:round;stroke-linejoin:round;stroke-miterlimit:10;}
	.st49{fill:#FFFFFF;stroke:#FFFFFF;stroke-width:2;stroke-linecap:round;stroke-linejoin:round;stroke-miterlimit:10;}
	.st50{fill:none;stroke:#000000;stroke-width:3.7;stroke-linecap:round;stroke-linejoin:round;stroke-miterlimit:10;}
	.st51{fill:#30F2AA;}
	.st52{fill:none;stroke:#30F2AA;stroke-width:2;stroke-linecap:round;stroke-linejoin:round;stroke-miterlimit:10;}
	.st53{fill:#3CC5FF;}
	.st54{fill:none;stroke:#F9EF5F;stroke-width:2;stroke-linecap:round;stroke-linejoin:round;stroke-miterlimit:10;}
	.st55{fill:#FF7373;}
	.st56{fill:none;stroke:#FF7373;stroke-width:2;stroke-linecap:round;stroke-miterlimit:10;}
	.st57{opacity:0.3;fill:none;stroke:#FFFFFF;stroke-width:4;stroke-miterlimit:10;}
	.st58{fill:none;stroke:#000000;stroke-width:2;stroke-linecap:round;stroke-linejoin:round;stroke-miterlimit:10;}
	.st59{fill:none;stroke:#FFFFFF;stroke-width:2;stroke-linejoin:round;stroke-miterlimit:10;}
	.st60{fill:#FFFFFF;stroke:#FFFFFF;stroke-width:2;stroke-linejoin:round;stroke-miterlimit:10;}
	.st61{fill:#3CC5FF;stroke:#3CC5FF;stroke-width:2;stroke-linejoin:round;stroke-miterlimit:10;}
	.st62{fill:#FF7373;stroke:#FF7373;stroke-width:2;stroke-linejoin:round;stroke-miterlimit:10;}
	.st63{fill:#FF7373;stroke:#FF7373;stroke-width:2;stroke-linecap:round;stroke-linejoin:round;stroke-miterlimit:10;}
	.st64{fill:#F9EF5F;stroke:#F9EF5F;stroke-width:2;stroke-linejoin:round;stroke-miterlimit:10;}
	.st65{fill:#F9EF5F;stroke:#F9EF5F;stroke-width:2;stroke-linecap:round;stroke-linejoin:round;stroke-miterlimit:10;}
	.st66{fill:#F9EF5F;}
	
		.st67{fill:none;stroke:#FFFFFF;stroke-width:2;stroke-linecap:round;stroke-linejoin:round;stroke-miterlimit:10;stroke-dasharray:3,6;}
	
		.st68{fill:none;stroke:#FFFFFF;stroke-width:2;stroke-linecap:round;stroke-linejoin:round;stroke-miterlimit:10;stroke-dasharray:4,6;}
	.st69{fill-rule:evenodd;clip-rule:evenodd;fill:#FCFCFC;}
</style>
<g id="Layer_1" class="st0">
	<rect class="st1" width="68" height="68"/>
</g>
<g id="Grid" class="st0">
	<g class="st1">
		<path class="st10" d="M0,0v68h68V0H0z M62,62H6V6h56V62z"/>
		<path class="st11" d="M59,56H9c-1.7,0-3-1.3-3-3V15c0-1.7,1.3-3,3-3h50c1.7,0,3,1.3,3,3v38C62,54.7,60.7,56,59,56z"/>
		<path class="st11" d="M56,9v50c0,1.7-1.3,3-3,3H15c-1.7,0-3-1.3-3-3V9c0-1.7,1.3-3,3-3h38C54.7,6,56,7.3,56,9z"/>
		<path class="st11" d="M59,12v44c0,1.7-1.3,3-3,3H12c-1.7,0-3-1.3-3-3V12c0-1.7,1.3-3,3-3h44C57.7,9,59,10.3,59,12z"/>
		<line class="st12" x1="34" y1="6" x2="34" y2="62"/>
		<line class="st12" x1="62" y1="34" x2="6" y2="34"/>
	</g>
	<rect x="0" class="st13" width="68" height="68"/>
</g>
<g id="Outline_Path">
</g>
<g id="Icon">
	<g>
		<rect class="st18" width="68" height="68"/>
		<g>
			<g>
				<g>
					<path class="st8" d="M34,13c11.6,0,21,9.4,21,21s-9.4,21-21,21s-21-9.4-21-21S22.4,13,34,13 M34,9C20.2,9,9,20.2,9,34
						s11.2,25,25,25s25-11.2,25-25S47.8,9,34,9L34,9z"/>
				</g>
			</g>
			<g>
				<path class="st8" d="M33,43.9c-0.7,0-1.2,0.2-1.5,0.5C31.2,44.7,31,45.3,31,46c0,0.7,0.2,1.2,0.5,1.5c0.3,0.3,0.8,0.5,1.5,0.5
					c0.7,0,1.2-0.2,1.5-0.4c0.3-0.3,0.5-0.8,0.5-1.6c0-0.7-0.2-1.3-0.5-1.6C34.2,44.1,33.7,43.9,33,43.9z"/>
				<path class="st8" d="M42.5,23.9c-0.3-0.8-0.8-1.5-1.5-2.1c-0.7-0.6-1.6-1-2.7-1.4c-1.1-0.3-2.4-0.5-3.9-0.5
					c-1.3,0-2.6,0.1-3.8,0.3c-1.2,0.2-2.3,0.5-3.4,0.8L27,21.1v1.2c0,0.2,0.1,0.4,0.2,0.6c0.3,0.5,1.2,0.4,3.3,0
					c1.1-0.2,2.3-0.3,3.7-0.3c2,0,3.5,0.3,4.3,1c0.8,0.7,1.2,1.6,1.2,3c0,0.6-0.1,1.1-0.2,1.5c-0.1,0.4-0.3,0.8-0.6,1.2
					c-0.3,0.4-0.6,0.8-1.1,1.2c-0.5,0.4-1,0.9-1.6,1.4c-0.7,0.6-1.4,1.2-2,1.7c-0.6,0.5-1.1,1-1.5,1.6c-0.4,0.5-0.8,1.1-1,1.7
					c-0.2,0.6-0.3,1.3-0.3,2c0,0.4,0,0.8,0.1,1c0.1,0.4,0.5,0.7,1.1,0.7h1.6v-0.3c0-0.8,0.1-1.5,0.2-2.1c0.1-0.5,0.4-1,0.7-1.5
					c0.4-0.5,0.8-1,1.4-1.5c0.6-0.5,1.4-1.2,2.3-2c0.5-0.4,1-0.8,1.5-1.2c0.5-0.4,1-0.9,1.3-1.5c0.4-0.5,0.7-1.1,1-1.8
					c0.3-0.7,0.4-1.4,0.4-2.2C43,25.5,42.8,24.7,42.5,23.9z"/>
			</g>
		</g>
	</g>
</g>
<g id="grid-proselect">
</g>
<g id="icon-proselect">
</g>
<g id="text-proselect">
</g>
<g id="Layer_7">
</g>
</svg>
