<svg id="Help_button" xmlns="http://www.w3.org/2000/svg" width="144" height="144" viewBox="0 0 144 144">
  <g id="ic_Help">
    <rect id="Rectangle_2111" data-name="Rectangle 2111" width="144" height="144" fill="none"/>
    <g id="Group_2623" data-name="Group 2623" transform="translate(-926.015 -234.951)">
      <path id="Path_1182" data-name="Path 1182" d="M1000.413,253.951a54.4,54.4,0,1,0,54.4,54.4A54.4,54.4,0,0,0,1000.413,253.951Zm0,102.543a48.143,48.143,0,1,1,48.145-48.142A48.144,48.144,0,0,1,1000.413,356.494Z" transform="translate(0 0)" fill="#fff"/>
      <g id="Group_2622" data-name="Group 2622" transform="translate(986.663 281.179)">
        <g id="Group_2621" data-name="Group 2621">
          <g id="Group_2617" data-name="Group 2617" transform="translate(7.041 45.635)">
            <g id="Group_2616" data-name="Group 2616">
              <g id="Group_2615" data-name="Group 2615">
                <path id="Path_1183" data-name="Path 1183" d="M964.573,275.4H964.5a4.583,4.583,0,0,0-3.309,1.145,4.715,4.715,0,0,0-1.138,3.516,4.476,4.476,0,0,0,1.121,3.359,4.6,4.6,0,0,0,3.315,1.022,5.046,5.046,0,0,0,3.42-1.036,4.437,4.437,0,0,0,1.182-3.482,4.6,4.6,0,0,0-1.209-3.485,4.778,4.778,0,0,0-3.312-1.039Z" transform="translate(-960.055 -275.402)" fill="#fff"/>
              </g>
            </g>
          </g>
          <g id="Group_2620" data-name="Group 2620">
            <g id="Group_2619" data-name="Group 2619">
              <g id="Group_2618" data-name="Group 2618">
                <path id="Path_1184" data-name="Path 1184" d="M971.158,261.967h-.241a32.956,32.956,0,0,0-6.474.673,49.864,49.864,0,0,0-5.659,1.5l-.367.122-.435.143,0,.455.021,2.323a2.9,2.9,0,0,0,.333,1.345,2.137,2.137,0,0,0,2.059.992,19.319,19.319,0,0,0,4.164-.706,26.712,26.712,0,0,1,6.005-.649l.2,0c3.1,0,5.3.56,6.525,1.664a6.716,6.716,0,0,1,1.878,5.156,10.234,10.234,0,0,1-.3,2.707,7.754,7.754,0,0,1-.917,2.1,12.733,12.733,0,0,1-1.685,2.109q-1.131,1.162-2.68,2.656c-1.169,1.128-2.262,2.218-3.251,3.247a25.178,25.178,0,0,0-2.544,3.088,12.23,12.23,0,0,0-1.668,3.4,13.216,13.216,0,0,0-.537,4.059,8.369,8.369,0,0,0,.21,2.082,2.352,2.352,0,0,0,2.466,1.743l2.711-.02.625,0,0-.625,0-.523a19.847,19.847,0,0,1,.272-3.8A7.151,7.151,0,0,1,972.9,294.6a19.117,19.117,0,0,1,2.249-2.772c1.036-1.077,2.32-2.351,3.814-3.784.795-.768,1.6-1.569,2.418-2.412a18.219,18.219,0,0,0,2.3-2.9,16.5,16.5,0,0,0,1.675-3.519,13.344,13.344,0,0,0,.662-4.429,15.212,15.212,0,0,0-.853-5.054,10.519,10.519,0,0,0-2.734-4.147,12.848,12.848,0,0,0-4.715-2.7,20.772,20.772,0,0,0-6.562-.914Z" transform="translate(-957.982 -261.967)" fill="#fff"/>
              </g>
            </g>
          </g>
        </g>
      </g>
    </g>
  </g>
</svg>
