<svg id="Icon" xmlns="http://www.w3.org/2000/svg" viewBox="0 0 144 144"><rect width="144" height="144" fill="none"/><path d="M72,24A48,48,0,1,1,24,72,48.05,48.05,0,0,1,72,24m0-4a52,52,0,1,0,52,52A52,52,0,0,0,72,20Z" fill="#fff"/><path d="M70.1,92.58a4.09,4.09,0,0,0-3,1,4.29,4.29,0,0,0-1,3.17,4,4,0,0,0,.93,3,4.25,4.25,0,0,0,3,.9,4.45,4.45,0,0,0,3-.89,4,4,0,0,0,1-3.11,4.14,4.14,0,0,0-1-3.14A4.36,4.36,0,0,0,70.1,92.58Z" fill="#fff"/><path d="M86,53.06A10.2,10.2,0,0,0,83.33,49a12.41,12.41,0,0,0-4.6-2.69,21,21,0,0,0-6.79-1A33.27,33.27,0,0,0,65.4,46a50.92,50.92,0,0,0-5.77,1.49l-.38.13V50a2.41,2.41,0,0,0,.26,1.1c.5,1,2,.86,5.69,0a27.85,27.85,0,0,1,6.34-.65c3.46,0,5.93.66,7.33,2S81,55.67,81,58.25a11.26,11.26,0,0,1-.35,3,9.06,9.06,0,0,1-1,2.34,13.93,13.93,0,0,1-1.85,2.28C77,66.64,76,67.56,75,68.59c-1.25,1.19-2.38,2.31-3.35,3.32A25.14,25.14,0,0,0,69,75a12.5,12.5,0,0,0-1.66,3.33,13.25,13.25,0,0,0-.55,4,8.33,8.33,0,0,0,.18,2,1.8,1.8,0,0,0,1.93,1.34h2.76v-.54A21.8,21.8,0,0,1,72,81.07a8.08,8.08,0,0,1,1.19-2.92,20.09,20.09,0,0,1,2.41-3c1-1.06,2.37-2.37,4-3.91.82-.78,1.65-1.6,2.5-2.46A18.23,18.23,0,0,0,84.39,66a16.59,16.59,0,0,0,1.68-3.49,13.31,13.31,0,0,0,.68-4.37A15.33,15.33,0,0,0,86,53.06Z" fill="#fff"/></svg>