<?xml version="1.0" encoding="utf-8"?>
<!-- Generator: Adobe Illustrator 24.1.3, SVG Export Plug-In . SVG Version: 6.00 Build 0)  -->
<svg version="1.1" id="Help_button" xmlns="http://www.w3.org/2000/svg" xmlns:xlink="http://www.w3.org/1999/xlink" x="0px"
	 y="0px" viewBox="0 0 144 144" style="enable-background:new 0 0 144 144;" xml:space="preserve">
<style type="text/css">
	.st0{fill:none;}
	.st1{fill:none;stroke:#FFFFFF;stroke-width:4;stroke-linecap:round;stroke-linejoin:round;}
	.st2{fill:#FFFFFF;}
</style>
<rect id="Rectangle_11" y="0.5" class="st0" width="144" height="144"/>
<circle class="st1" cx="72" cy="72.2" r="50"/>
<g id="Group_2622" transform="translate(986.663 281.179)">
	<g id="Group_2621">
		<g id="Group_2617" transform="translate(7.041 45.635)">
			<g id="Group_2616">
				<g id="Group_2615">
					<path id="Path_1183" class="st2" d="M-924.2-236.3L-924.2-236.3c-1.3-0.1-2.5,0.3-3.4,1.1c-0.8,1-1.3,2.2-1.1,3.5
						c-0.1,1.2,0.3,2.4,1.1,3.4c0.9,0.8,2.1,1.1,3.3,1c1.2,0.1,2.4-0.3,3.4-1c0.9-0.9,1.3-2.2,1.2-3.5c0.1-1.3-0.3-2.5-1.2-3.5
						C-921.8-236-923-236.4-924.2-236.3L-924.2-236.3z"/>
				</g>
			</g>
		</g>
		<g id="Group_2620">
			<g id="Group_2619">
				<g id="Group_2618">
					<path id="Path_1184" class="st2" d="M-915.5-236.3h-0.2c-2.2,0-4.3,0.2-6.5,0.7c-1.9,0.4-3.8,0.9-5.7,1.5l-0.4,0.1l-0.4,0.1
						v0.5l0,2.3c0,0.5,0.1,0.9,0.3,1.3c0.4,0.7,1.2,1.1,2.1,1c1.4-0.1,2.8-0.3,4.2-0.7c2-0.4,4-0.7,6-0.6h0.2c3.1,0,5.3,0.6,6.5,1.7
						c1.3,1.4,2,3.2,1.9,5.2c0,0.9-0.1,1.8-0.3,2.7c-0.2,0.7-0.5,1.4-0.9,2.1c-0.5,0.8-1.1,1.5-1.7,2.1c-0.8,0.8-1.6,1.7-2.7,2.7
						c-1.2,1.1-2.3,2.2-3.3,3.2c-0.9,1-1.8,2-2.5,3.1c-0.7,1-1.3,2.2-1.7,3.4c-0.4,1.3-0.6,2.7-0.5,4.1c0,0.7,0.1,1.4,0.2,2.1
						c0.3,1.1,1.3,1.8,2.5,1.7l2.7,0h0.6v-0.6v-0.5c0-1.3,0.1-2.5,0.3-3.8c0.2-0.9,0.5-1.8,1-2.6c0.7-1,1.4-1.9,2.2-2.8
						c1-1.1,2.3-2.4,3.8-3.8c0.8-0.8,1.6-1.6,2.4-2.4c0.9-0.9,1.6-1.9,2.3-2.9c0.7-1.1,1.3-2.3,1.7-3.5c0.5-1.4,0.7-2.9,0.7-4.4
						c0-1.7-0.3-3.4-0.9-5.1c-0.6-1.6-1.5-3-2.7-4.1c-1.4-1.2-3-2.1-4.7-2.7C-911.1-236-913.3-236.4-915.5-236.3L-915.5-236.3z"/>
				</g>
			</g>
		</g>
	</g>
</g>
</svg>
