<svg xmlns="http://www.w3.org/2000/svg" viewBox="0 0 144 144"><defs><style>.cls-1,.cls-3{fill:none;}.cls-2{fill:#fff;}.cls-3{stroke:#fff;stroke-linecap:round;stroke-miterlimit:10;stroke-width:4px;}</style></defs><title>id_disabled</title><g id="Layer_2" data-name="Layer 2"><g id="Icon"><rect class="cls-1" width="144" height="144"/><circle class="cls-2" cx="60.5" cy="49.5" r="3.5"/><path class="cls-2" d="M67.36,58a6.42,6.42,0,0,0-12.72,0Z"/><line class="cls-3" x1="87" y1="48" x2="73" y2="48"/><line class="cls-3" x1="83" y1="56" x2="73" y2="56"/><path class="cls-3" d="M77,122H39a6,6,0,0,1-6-6V28a6,6,0,0,1,6-6h66a6,6,0,0,1,6,6V69"/><rect class="cls-3" x="47" y="38" width="50" height="28" rx="4"/><path class="cls-3" d="M73,106H51a4,4,0,0,1-4-4V82a4,4,0,0,1,4-4H88"/><line class="cls-3" x1="59" y1="87" x2="78" y2="87"/><line class="cls-3" x1="59" y1="96" x2="74" y2="96"/><path class="cls-2" d="M109,121a16,16,0,0,0,15.86-14H93.14A16,16,0,0,0,109,121Z"/><path class="cls-2" d="M109,89a16,16,0,0,0-15.86,14h31.72A16,16,0,0,0,109,89Z"/><path class="cls-2" d="M109,76.3A28.7,28.7,0,1,0,137.7,105,28.7,28.7,0,0,0,109,76.3Zm0,48.7a20,20,0,1,1,20-20A20,20,0,0,1,109,125Z"/></g></g></svg>