<svg xmlns="http://www.w3.org/2000/svg" viewBox="0 0 160 160"><defs><style>.cls-1{fill:#fff;}</style></defs><title>id_locked_pressed</title><g id="Layer_2" data-name="Layer 2"><g id="Icon"><path class="cls-1" d="M80,0a80,80,0,1,0,80,80A80,80,0,0,0,80,0Zm5,132H47a8,8,0,0,1-8-8V36a8,8,0,0,1,8-8h66a8,8,0,0,1,8,8V77a2,2,0,0,1-4,0V36a4,4,0,0,0-4-4H47a4,4,0,0,0-4,4v88a4,4,0,0,0,4,4H85a2,2,0,0,1,0,4ZM59,112H81a2,2,0,0,1,0,4H59a6,6,0,0,1-6-6V90a6,6,0,0,1,6-6H96a2,2,0,0,1,0,4H59a2,2,0,0,0-2,2v20A2,2,0,0,0,59,112Zm6-8a2,2,0,0,1,2-2H82a2,2,0,0,1,0,4H67A2,2,0,0,1,65,104ZM59,76a6,6,0,0,1-6-6V50a6,6,0,0,1,6-6h42a6,6,0,0,1,6,6V70a6,6,0,0,1-6,6ZM86,97H67a2,2,0,0,1,0-4H86a2,2,0,0,1,0,4Zm30.84,44.81a28.71,28.71,0,1,1,28.7-28.7A28.7,28.7,0,0,1,116.84,141.81Z"/><path class="cls-1" d="M103,70V50a2,2,0,0,0-2-2H59a2,2,0,0,0-2,2V70a2,2,0,0,0,2,2h42A2,2,0,0,0,103,70ZM62.64,66a6.79,6.79,0,0,1,4.55-5.26,3.51,3.51,0,1,1,3-.18A6.69,6.69,0,0,1,75.36,66ZM91,66H81a2,2,0,0,1,0-4H91a2,2,0,0,1,0,4Zm4-8H81a2,2,0,0,1,0-4H95a2,2,0,0,1,0,4Z"/><path class="cls-1" d="M128.27,105.2V99.94a8,8,0,0,0-8-8h-7a8,8,0,0,0-8,8v5.26a8,8,0,0,0-5.7,7.66v13.08a8,8,0,0,0,8,8H126a8,8,0,0,0,8-8V112.86A8,8,0,0,0,128.27,105.2Zm-19-5.26a4,4,0,0,1,4-4h7a4,4,0,0,1,4,4v4.92h-15Zm20.7,26a4,4,0,0,1-4,4h-18.4a4,4,0,0,1-4-4V112.86a4,4,0,0,1,4-4H126a4,4,0,0,1,4,4Z"/><path class="cls-1" d="M116.77,114.74a3.52,3.52,0,0,0-2,6.41v4.71a2,2,0,0,0,4,0v-4.71a3.52,3.52,0,0,0-2-6.41Z"/></g></g></svg>