<svg xmlns="http://www.w3.org/2000/svg" viewBox="0 0 144 144"><defs><style>.cls-1,.cls-3{fill:none;}.cls-2{fill:#fff;}.cls-3{stroke:#fff;stroke-linecap:round;stroke-miterlimit:10;stroke-width:4px;}</style></defs><title>id_locked</title><g id="Layer_2" data-name="Layer 2"><g id="Icon"><rect class="cls-1" width="144" height="144"/><circle class="cls-2" cx="60.5" cy="49.5" r="3.5"/><path class="cls-2" d="M67.36,58a6.42,6.42,0,0,0-12.72,0Z"/><line class="cls-3" x1="87" y1="48" x2="73" y2="48"/><line class="cls-3" x1="83" y1="56" x2="73" y2="56"/><path class="cls-3" d="M77,122H39a6,6,0,0,1-6-6V28a6,6,0,0,1,6-6h66a6,6,0,0,1,6,6V69"/><rect class="cls-3" x="47" y="38" width="50" height="28" rx="4"/><path class="cls-3" d="M73,106H51a4,4,0,0,1-4-4V82a4,4,0,0,1,4-4H88"/><line class="cls-3" x1="59" y1="87" x2="78" y2="87"/><line class="cls-3" x1="59" y1="96" x2="74" y2="96"/><path class="cls-2" d="M116.27,91.94a4,4,0,0,0-4-4h-7a4,4,0,0,0-4,4v4.92h15Z"/><path class="cls-2" d="M118,100.86H99.57a4,4,0,0,0-4,4v13.08a4,4,0,0,0,4,4H118a4,4,0,0,0,4-4V104.86A4,4,0,0,0,118,100.86Zm-7.2,12.29v4.71a2,2,0,0,1-4,0v-4.71a3.52,3.52,0,1,1,4,0Z"/><path class="cls-2" d="M108.77,76.23a28.71,28.71,0,1,0,28.7,28.71A28.71,28.71,0,0,0,108.77,76.23ZM126,117.94a8,8,0,0,1-8,8H99.57a8,8,0,0,1-8-8V104.86a8,8,0,0,1,5.7-7.66V91.94a8,8,0,0,1,8-8h7a8,8,0,0,1,8,8V97.2a8,8,0,0,1,5.7,7.66Z"/></g></g></svg>