<svg xmlns="http://www.w3.org/2000/svg" viewBox="0 0 160 160"><defs><style>.cls-1{fill:#fff;}</style></defs><title>id_normal_pressed</title><g id="Layer_2" data-name="Layer 2"><g id="Icon"><path class="cls-1" d="M113,32H47a4,4,0,0,0-4,4v88a4,4,0,0,0,4,4h66a4,4,0,0,0,4-4V36A4,4,0,0,0,113,32Zm-6,78a6,6,0,0,1-6,6H59a6,6,0,0,1-6-6V90a6,6,0,0,1,6-6h42a6,6,0,0,1,6,6Zm0-40a6,6,0,0,1-6,6H59a6,6,0,0,1-6-6V50a6,6,0,0,1,6-6h42a6,6,0,0,1,6,6Z"/><path class="cls-1" d="M101,48H59a2,2,0,0,0-2,2V70a2,2,0,0,0,2,2h42a2,2,0,0,0,2-2V50A2,2,0,0,0,101,48ZM62.64,66a6.79,6.79,0,0,1,4.55-5.26,3.51,3.51,0,1,1,3-.18A6.69,6.69,0,0,1,75.36,66ZM91,66H81a2,2,0,0,1,0-4H91a2,2,0,0,1,0,4Zm4-8H81a2,2,0,0,1,0-4H95a2,2,0,0,1,0,4Z"/><path class="cls-1" d="M101,88H59a2,2,0,0,0-2,2v20a2,2,0,0,0,2,2h42a2,2,0,0,0,2-2V90A2,2,0,0,0,101,88ZM86,106H67a2,2,0,0,1,0-4H86a2,2,0,0,1,0,4Zm7-9H67a2,2,0,0,1,0-4H93a2,2,0,0,1,0,4Z"/><path class="cls-1" d="M80,0a80,80,0,1,0,80,80A80,80,0,0,0,80,0Zm41,124a8,8,0,0,1-8,8H47a8,8,0,0,1-8-8V36a8,8,0,0,1,8-8h66a8,8,0,0,1,8,8Z"/></g></g></svg>