<svg xmlns="http://www.w3.org/2000/svg" viewBox="0 0 144 144"><defs><style>.cls-1{fill:#fff;}.cls-2,.cls-3{fill:none;}.cls-3{stroke:#fff;stroke-linecap:round;stroke-miterlimit:10;stroke-width:4px;}</style></defs><title>id_warning</title><g id="Layer_2" data-name="Layer 2"><g id="Icon"><path class="cls-1" d="M94.64,117.11H123l-14.2-27.94Zm14.2-2.67a2.36,2.36,0,1,1,2.36-2.36A2.36,2.36,0,0,1,108.84,114.44Zm2.36-13.6v4.48a2.36,2.36,0,0,1-4.72,0v-4.48a2.36,2.36,0,0,1,4.72,0Z"/><path class="cls-1" d="M108.84,76.4a28.71,28.71,0,1,0,28.7,28.71A28.7,28.7,0,0,0,108.84,76.4Zm16.4,44.71H92.44a2.72,2.72,0,0,1-2.29-4L106.8,84.35a2.3,2.3,0,0,1,4.08,0l16.65,32.75A2.72,2.72,0,0,1,125.24,121.11Z"/><rect class="cls-2" width="144" height="144"/><circle class="cls-1" cx="60.5" cy="49.5" r="3.5"/><path class="cls-1" d="M67.36,58a6.42,6.42,0,0,0-12.72,0Z"/><line class="cls-3" x1="87" y1="48" x2="73" y2="48"/><line class="cls-3" x1="83" y1="56" x2="73" y2="56"/><path class="cls-3" d="M77,122H39a6,6,0,0,1-6-6V28a6,6,0,0,1,6-6h66a6,6,0,0,1,6,6V69"/><rect class="cls-3" x="47" y="38" width="50" height="28" rx="4"/><path class="cls-3" d="M73,106H51a4,4,0,0,1-4-4V82a4,4,0,0,1,4-4H88"/><line class="cls-3" x1="59" y1="87" x2="78" y2="87"/><line class="cls-3" x1="59" y1="96" x2="74" y2="96"/></g></g></svg>