<svg xmlns="http://www.w3.org/2000/svg" viewBox="0 0 144 144"><defs><style>.cls-1{fill:none;}.cls-2{fill:#fff;}</style></defs><title>info_l</title><g id="Layer_2" data-name="Layer 2"><g id="Icon"><rect class="cls-1" width="144" height="144"/><path class="cls-2" d="M72,24A48,48,0,1,1,24,72,48.05,48.05,0,0,1,72,24m0-4a52,52,0,1,0,52,52A52,52,0,0,0,72,20Z"/><path class="cls-2" d="M73.12,58.13H69V98a1.68,1.68,0,0,0,1.88,1.77H75V59.9A1.68,1.68,0,0,0,73.12,58.13Z"/><path class="cls-2" d="M75,45.11h0a5.4,5.4,0,0,0-5.94,0,3.92,3.92,0,0,0-1,3.07,3.88,3.88,0,0,0,1,3.06,5.4,5.4,0,0,0,5.94,0,4,4,0,0,0,1-3.06A4,4,0,0,0,75,45.11Z"/></g></g></svg>