<?xml version="1.0" encoding="utf-8"?>
<!-- Generator: Adobe Illustrator 24.1.1, SVG Export Plug-In . SVG Version: 6.00 Build 0)  -->
<svg version="1.1" id="Icon" xmlns="http://www.w3.org/2000/svg" xmlns:xlink="http://www.w3.org/1999/xlink" x="0px" y="0px"
	 viewBox="0 0 96 96" style="enable-background:new 0 0 96 96;" xml:space="preserve">
<style type="text/css">
	.st0{fill:none;}
	.st1{fill:#FFFFFF;}
	.st2{fill:#B6B7BA;}
	.st3{font-family:'HPSimplified-Regular';}
	.st4{font-size:56.06px;}
</style>
<g>
	<rect class="st0" width="96" height="96"/>
	<path class="st1" d="M56.6,12H25.8c-3.2,0-5.8,2.6-5.8,5.8c0,0,0,0,0,0v60.3c0,3.2,2.6,5.8,5.8,5.8c0,0,0,0,0,0h46.4
		c3.2,0,5.8-2.6,5.8-5.8c0,0,0,0,0,0V32.3c0-0.8-0.3-1.6-0.9-2.1L58.5,12.8C58,12.3,57.3,12,56.6,12z M62,30.6c-2,0-3.5-1.5-3.6-3.5
		V16.6l14,14H62z"/>
	<text transform="matrix(1 0 0 1 33.02 69.36)" class="st2 st3 st4">A</text>
</g>
</svg>
