<svg xmlns="http://www.w3.org/2000/svg" xmlns:xlink="http://www.w3.org/1999/xlink" width="68" height="68" viewBox="0 0 68 68"><defs><style>.a,.c,.d{fill:none;}.b{clip-path:url(#a);}.c,.d{stroke:#fff;stroke-linecap:round;stroke-miterlimit:10;stroke-width:3.444px;}.d{stroke-linejoin:round;}</style><clipPath id="a"><rect class="a" width="68" height="68"/></clipPath></defs><g class="b"><g transform="translate(0 0)"><rect class="a" width="68" height="68"/><path class="c" d="M93.611,32.083H84.639a2.842,2.842,0,0,1-2.833-2.833V19.806" transform="translate(-36.944 -8.944)"/><path class="c" d="M52.528,34.528V21.778a2.842,2.842,0,0,1,2.833-2.833H67.781a1.715,1.715,0,0,1,1.322.567L80.767,31.175a1.865,1.865,0,0,1,.567,1.322V55.778A2.842,2.842,0,0,1,78.5,58.611H55.361a2.842,2.842,0,0,1-2.833-2.833V46.333" transform="translate(-23.722 -8.556)"/><line class="c" x2="16.452" transform="translate(25.226 31.806)"/><line class="c" x2="4.387" transform="translate(16.452 31.806)"/><path class="c" d="M32.639,32.722H21.778a2.842,2.842,0,0,0-2.833,2.833v34a2.842,2.842,0,0,0,2.833,2.833H44.444a2.842,2.842,0,0,0,2.833-2.833" transform="translate(-8.556 -14.778)"/><g transform="translate(37.306 25.972)"><path class="d" d="M68.028,59.639,73.222,53.5l-5.194-6.139" transform="translate(-68.028 -47.361)"/></g><line class="c" x2="6.581" transform="translate(16.452 38.387)"/><line class="c" x2="6.581" transform="translate(16.452 44.968)"/></g></g></svg>