<svg xmlns="http://www.w3.org/2000/svg" viewBox="0 0 144 144"><defs><style>.cls-1{fill:#fff;}.cls-2,.cls-3{fill:none;}.cls-3{stroke:#fff;stroke-linecap:round;stroke-linejoin:round;stroke-width:4px;}</style></defs><title>menu_locked</title><g id="Layer_2" data-name="Layer 2"><g id="Icon"><path class="cls-1" d="M116.27,91.94a4,4,0,0,0-4-4h-7a4,4,0,0,0-4,4v4.92h15Z"/><path class="cls-1" d="M118,100.86H99.57a4,4,0,0,0-4,4v13.08a4,4,0,0,0,4,4H118a4,4,0,0,0,4-4V104.86A4,4,0,0,0,118,100.86Zm-7.2,12.29v4.71a2,2,0,0,1-4,0v-4.71a3.52,3.52,0,1,1,4,0Z"/><path class="cls-1" d="M108.77,76.23a28.71,28.71,0,1,0,28.7,28.71A28.71,28.71,0,0,0,108.77,76.23ZM126,117.94a8,8,0,0,1-8,8H99.57a8,8,0,0,1-8-8V104.86a8,8,0,0,1,5.7-7.66V91.94a8,8,0,0,1,8-8h7a8,8,0,0,1,8,8V97.2a8,8,0,0,1,5.7,7.66Z"/><rect class="cls-2" width="144" height="144"/><g id="icon-2" data-name="icon"><g id="Group_1" data-name="Group 1"><line id="Line_75" data-name="Line 75" class="cls-3" x1="50" y1="72" x2="94" y2="72"/><line id="Line_76" data-name="Line 76" class="cls-3" x1="50" y1="94" x2="74" y2="94"/><line id="Line_77" data-name="Line 77" class="cls-3" x1="50" y1="50" x2="94" y2="50"/></g></g><path class="cls-3" d="M74,116H34a6,6,0,0,1-6-6V34a6,6,0,0,1,6-6h76a6,6,0,0,1,6,6V69"/></g></g></svg>