<svg xmlns="http://www.w3.org/2000/svg" viewBox="0 0 160 160"><defs><style>.cls-1{fill:#fff;}</style></defs><title>menu_locked_pressed</title><g id="Layer_2" data-name="Layer 2"><g id="Icon"><path class="cls-1" d="M80,0a80,80,0,1,0,80,80A80,80,0,0,0,80,0Zm2,126H42a8,8,0,0,1-8-8V42a8,8,0,0,1,8-8h76a8,8,0,0,1,8,8V77a2,2,0,0,1-4,0V42a4,4,0,0,0-4-4H42a4,4,0,0,0-4,4v76a4,4,0,0,0,4,4H82a2,2,0,0,1,0,4Zm20-66H58a2,2,0,0,1,0-4h44a2,2,0,0,1,0,4Zm2,20a2,2,0,0,1-2,2H58a2,2,0,0,1,0-4h44A2,2,0,0,1,104,80ZM82,104H58a2,2,0,0,1,0-4H82a2,2,0,0,1,0,4Zm34.84,37.81a28.71,28.71,0,1,1,28.7-28.7A28.7,28.7,0,0,1,116.84,141.81Z"/><path class="cls-1" d="M128.27,105.2V99.94a8,8,0,0,0-8-8h-7a8,8,0,0,0-8,8v5.26a8,8,0,0,0-5.7,7.66v13.08a8,8,0,0,0,8,8H126a8,8,0,0,0,8-8V112.86A8,8,0,0,0,128.27,105.2Zm-19-5.26a4,4,0,0,1,4-4h7a4,4,0,0,1,4,4v4.92h-15Zm20.7,26a4,4,0,0,1-4,4h-18.4a4,4,0,0,1-4-4V112.86a4,4,0,0,1,4-4H126a4,4,0,0,1,4,4Z"/><path class="cls-1" d="M116.77,114.74a3.52,3.52,0,0,0-2,6.41v4.71a2,2,0,0,0,4,0v-4.71a3.52,3.52,0,0,0-2-6.41Z"/></g></g></svg>