<svg xmlns="http://www.w3.org/2000/svg" viewBox="0 0 160 160"><defs><style>.cls-1{fill:#fff;}</style></defs><title>menu_warning_pressed</title><g id="Layer_2" data-name="Layer 2"><g id="Icon"><path class="cls-1" d="M80,0a80,80,0,1,0,80,80A80,80,0,0,0,80,0Zm2,126H42a8,8,0,0,1-8-8V42a8,8,0,0,1,8-8h76a8,8,0,0,1,8,8V77a2,2,0,0,1-4,0V42a4,4,0,0,0-4-4H42a4,4,0,0,0-4,4v76a4,4,0,0,0,4,4H82a2,2,0,0,1,0,4Zm20-66H58a2,2,0,0,1,0-4h44a2,2,0,0,1,0,4Zm2,20a2,2,0,0,1-2,2H58a2,2,0,0,1,0-4h44A2,2,0,0,1,104,80ZM82,104H58a2,2,0,0,1,0-4H82a2,2,0,0,1,0,4Zm34.84,37.81a28.71,28.71,0,1,1,28.7-28.7A28.7,28.7,0,0,1,116.84,141.81Z"/><path class="cls-1" d="M116.84,117.72a2.36,2.36,0,1,0,2.36,2.36A2.36,2.36,0,0,0,116.84,117.72Z"/><path class="cls-1" d="M114.48,108.84v4.48a2.36,2.36,0,0,0,4.72,0v-4.48a2.36,2.36,0,0,0-4.72,0Z"/><path class="cls-1" d="M118.88,92.35a2.3,2.3,0,0,0-4.08,0L98.15,125.1a2.72,2.72,0,0,0,2.29,4h32.8a2.72,2.72,0,0,0,2.29-4Zm-16.24,32.76,14.2-27.94L131,125.11Z"/></g></g></svg>