<svg xmlns="http://www.w3.org/2000/svg" viewBox="0 0 160 160"><defs><style>.cls-1{fill:#fff;}</style></defs><title>menu_normal_pressed</title><g id="Layer_2" data-name="Layer 2"><g id="Icon"><path class="cls-1" d="M118,38H42a4,4,0,0,0-4,4v76a4,4,0,0,0,4,4h76a4,4,0,0,0,4-4V42A4,4,0,0,0,118,38Zm-16,66H58a2,2,0,0,1,0-4h44a2,2,0,0,1,0,4Zm0-22H58a2,2,0,0,1,0-4h44a2,2,0,0,1,0,4Zm0-22H58a2,2,0,0,1,0-4h44a2,2,0,0,1,0,4Z"/><path class="cls-1" d="M80,0a80,80,0,1,0,80,80A80,80,0,0,0,80,0Zm46,118a8,8,0,0,1-8,8H42a8,8,0,0,1-8-8V42a8,8,0,0,1,8-8h76a8,8,0,0,1,8,8Z"/></g></g></svg>