<svg xmlns="http://www.w3.org/2000/svg" viewBox="0 0 144 144"><defs><style>.cls-1{fill:#fff;}.cls-2,.cls-3{fill:none;}.cls-3{stroke:#fff;stroke-linecap:round;stroke-linejoin:round;stroke-width:4px;}</style></defs><title>menu_disabled</title><g id="Layer_2" data-name="Layer 2"><g id="Icon"><path class="cls-1" d="M109,121a16,16,0,0,0,15.86-14H93.14A16,16,0,0,0,109,121Z"/><path class="cls-1" d="M109,89a16,16,0,0,0-15.86,14h31.72A16,16,0,0,0,109,89Z"/><path class="cls-1" d="M109,76.3A28.7,28.7,0,1,0,137.7,105,28.7,28.7,0,0,0,109,76.3Zm0,48.7a20,20,0,1,1,20-20A20,20,0,0,1,109,125Z"/><rect class="cls-2" width="144" height="144"/><g id="icon-2" data-name="icon"><g id="Group_1" data-name="Group 1"><line id="Line_75" data-name="Line 75" class="cls-3" x1="50" y1="72" x2="94" y2="72"/><line id="Line_76" data-name="Line 76" class="cls-3" x1="50" y1="94" x2="74" y2="94"/><line id="Line_77" data-name="Line 77" class="cls-3" x1="50" y1="50" x2="94" y2="50"/></g></g><path class="cls-3" d="M74,116H34a6,6,0,0,1-6-6V34a6,6,0,0,1,6-6h76a6,6,0,0,1,6,6V69"/></g></g></svg>