<svg xmlns="http://www.w3.org/2000/svg" viewBox="0 0 144 144"><defs><style>.cls-1,.cls-2{fill:none;}.cls-2{stroke:#fff;stroke-linecap:round;stroke-linejoin:round;stroke-width:4px;}.cls-3{fill:#fff;}</style></defs><title>menu_warning</title><g id="Layer_2" data-name="Layer 2"><g id="Icon"><rect class="cls-1" width="144" height="144"/><g id="icon-2" data-name="icon"><g id="Group_1" data-name="Group 1"><line id="Line_75" data-name="Line 75" class="cls-2" x1="50" y1="72" x2="94" y2="72"/><line id="Line_76" data-name="Line 76" class="cls-2" x1="50" y1="94" x2="74" y2="94"/><line id="Line_77" data-name="Line 77" class="cls-2" x1="50" y1="50" x2="94" y2="50"/></g></g><path class="cls-2" d="M74,116H34a6,6,0,0,1-6-6V34a6,6,0,0,1,6-6h76a6,6,0,0,1,6,6V69"/><path class="cls-3" d="M94.64,117.11H123l-14.2-27.94Zm14.2-2.67a2.36,2.36,0,1,1,2.36-2.36A2.36,2.36,0,0,1,108.84,114.44Zm2.36-13.6v4.48a2.36,2.36,0,0,1-4.72,0v-4.48a2.36,2.36,0,0,1,4.72,0Z"/><path class="cls-3" d="M108.84,76.4a28.71,28.71,0,1,0,28.7,28.71A28.7,28.7,0,0,0,108.84,76.4Zm16.4,44.71H92.44a2.72,2.72,0,0,1-2.29-4L106.8,84.35a2.3,2.3,0,0,1,4.08,0l16.65,32.75A2.72,2.72,0,0,1,125.24,121.11Z"/></g></g></svg>