<svg xmlns="http://www.w3.org/2000/svg" viewBox="0 0 160 160"><defs><style>.cls-1{fill:#fff;}</style></defs><title>menu_disabled_pressed</title><g id="Layer_2" data-name="Layer 2"><g id="Icon"><path class="cls-1" d="M80,0a80,80,0,1,0,80,80A80,80,0,0,0,80,0Zm2,126H42a8,8,0,0,1-8-8V42a8,8,0,0,1,8-8h76a8,8,0,0,1,8,8V77a2,2,0,0,1-4,0V42a4,4,0,0,0-4-4H42a4,4,0,0,0-4,4v76a4,4,0,0,0,4,4H82a2,2,0,0,1,0,4Zm20-66H58a2,2,0,0,1,0-4h44a2,2,0,0,1,0,4Zm2,20a2,2,0,0,1-2,2H58a2,2,0,0,1,0-4h44A2,2,0,0,1,104,80ZM82,104H58a2,2,0,0,1,0-4H82a2,2,0,0,1,0,4Zm34.84,37.81a28.71,28.71,0,1,1,28.7-28.7A28.7,28.7,0,0,1,116.84,141.81Z"/><path class="cls-1" d="M117,93a20,20,0,1,0,20,20A20,20,0,0,0,117,93Zm0,36a16,16,0,0,1-15.86-14h31.72A16,16,0,0,1,117,129Zm-15.86-18a16,16,0,0,1,31.72,0Z"/></g></g></svg>