<svg id="Icon" xmlns="http://www.w3.org/2000/svg" viewBox="0 0 96 96"><g id="Path_237" data-name="Path 237"><circle cx="48" cy="48" r="38" fill="#fff"/><path d="M48,12A36,36,0,1,1,12,48,36,36,0,0,1,48,12m0-4A40,40,0,1,0,88,48,40,40,0,0,0,48,8Z" fill="#fff"/></g><rect width="96" height="96" fill="none"/><g id="Group_318" data-name="Group 318"><rect id="Rectangle_489" data-name="Rectangle 489" x="27.5" y="25.5" width="9" height="9" rx="4.45"/><rect id="Rectangle_490" data-name="Rectangle 490" x="43.5" y="25.5" width="9" height="9" rx="4.45"/><rect id="Rectangle_491" data-name="Rectangle 491" x="59.5" y="25.5" width="9" height="9" rx="4.45"/></g><g id="Group_318-2" data-name="Group 318"><rect id="Rectangle_489-2" data-name="Rectangle 489" x="28" y="39" width="9" height="9" rx="4.45"/><rect id="Rectangle_490-2" data-name="Rectangle 490" x="44" y="39" width="9" height="9" rx="4.45"/><rect id="Rectangle_491-2" data-name="Rectangle 491" x="60" y="39" width="9" height="9" rx="4.45"/></g><g id="Group_318-3" data-name="Group 318"><rect id="Rectangle_489-3" data-name="Rectangle 489" x="28" y="52" width="9" height="9" rx="4.45"/><rect id="Rectangle_490-3" data-name="Rectangle 490" x="44" y="52" width="9" height="9" rx="4.45"/><rect id="Rectangle_491-3" data-name="Rectangle 491" x="60" y="52" width="9" height="9" rx="4.45"/></g><g id="Group_318-4" data-name="Group 318"><rect id="Rectangle_490-4" data-name="Rectangle 490" x="44" y="65" width="9" height="9" rx="4.45"/></g></svg>