<?xml version="1.0" encoding="utf-8"?>
<!-- Generator: Adobe Illustrator 23.1.0, SVG Export Plug-In . SVG Version: 6.00 Build 0)  -->
<svg version="1.1" xmlns="http://www.w3.org/2000/svg" xmlns:xlink="http://www.w3.org/1999/xlink" x="0px" y="0px"
	 viewBox="0 0 96 96" style="enable-background:new 0 0 96 96;" xml:space="preserve">
<style type="text/css">
	.st0{display:none;}
	.st1{display:inline;}
	.st2{fill:none;stroke:#FF0000;stroke-width:8.000000e-02;stroke-miterlimit:10;}
	.st3{opacity:0.37;fill:#FF0000;}
	.st4{fill:none;stroke:#FF0000;stroke-width:0.1;stroke-miterlimit:10;}
	.st5{display:inline;opacity:0.37;}
	.st6{fill:none;stroke:#FFFFFF;stroke-width:4;stroke-miterlimit:10;}
	.st7{opacity:0.3;}
	.st8{fill:#FFFFFF;}
	.st9{opacity:0.7;}
	.st10{opacity:0.5;fill:#FF0000;}
	.st11{fill:none;stroke:#FF0000;stroke-width:6.000000e-02;stroke-miterlimit:10;}
	.st12{fill:none;stroke:#FF0000;stroke-width:2.833333e-02;stroke-miterlimit:10;}
	.st13{display:inline;fill:none;}
	.st14{display:inline;opacity:0.37;fill:#FF0000;}
	.st15{fill:none;stroke:#FF0000;stroke-width:4.002251e-02;stroke-miterlimit:10;}
	.st16{fill:none;stroke:#FF0000;stroke-width:4.002224e-02;stroke-miterlimit:10;}
	.st17{display:inline;fill:none;stroke:#FF0000;stroke-width:0.1;stroke-miterlimit:10;}
	.st18{fill:none;}
	.st19{fill:none;stroke:#FFFFFF;stroke-width:2;stroke-linecap:round;stroke-linejoin:round;stroke-miterlimit:10;}
	.st20{fill:none;stroke:#FFFFFF;stroke-width:2;stroke-linecap:round;stroke-miterlimit:10;}
	.st21{fill:#7EC7FC;stroke:#FFFFFF;stroke-width:2;stroke-linecap:round;stroke-miterlimit:10;}
	.st22{fill:none;stroke:#FFFFFF;stroke-width:4;stroke-linecap:round;stroke-miterlimit:10;}
	.st23{fill-rule:evenodd;clip-rule:evenodd;fill:none;stroke:#FFFFFF;stroke-width:4;stroke-linecap:round;stroke-miterlimit:10;}
	.st24{fill:none;stroke:#FFFFFF;stroke-width:4;stroke-linecap:round;stroke-linejoin:round;stroke-miterlimit:10;}
	.st25{fill:#FFFFFF;stroke:#FFFFFF;stroke-width:4;stroke-linecap:round;stroke-linejoin:round;stroke-miterlimit:10;}
	.st26{fill:none;stroke:#000000;stroke-width:4;stroke-linecap:round;stroke-linejoin:round;stroke-miterlimit:10;}
	.st27{fill:#FFFFFF;stroke:#FFFFFF;stroke-width:4;stroke-miterlimit:10;}
	.st28{fill:none;stroke:#FFFFFF;stroke-width:4;stroke-linecap:round;stroke-linejoin:round;}
	.st29{fill-rule:evenodd;clip-rule:evenodd;fill:none;stroke:#FFFFFF;stroke-width:2;stroke-linecap:round;stroke-miterlimit:10;}
	.st30{fill:none;stroke:#FFFFFF;stroke-width:2;stroke-miterlimit:10;}
	.st31{fill-rule:evenodd;clip-rule:evenodd;fill:none;stroke:#FFFFFF;stroke-width:2;stroke-miterlimit:10;}
	.st32{fill:none;stroke:#FFFFFF;stroke-width:4;stroke-linecap:round;stroke-linejoin:round;stroke-dasharray:7.7535,7.7535;}
	.st33{display:none;fill:none;stroke:#FFFFFF;stroke-width:4;stroke-linecap:round;stroke-linejoin:round;stroke-miterlimit:10;}
	.st34{fill:#FFFFFF;enable-background:new    ;}
	.st35{fill-rule:evenodd;clip-rule:evenodd;fill:none;stroke:#FFFFFF;stroke-width:4;stroke-miterlimit:10;}
	
		.st36{fill-rule:evenodd;clip-rule:evenodd;fill:none;stroke:#FCFCFC;stroke-width:4;stroke-linecap:round;stroke-linejoin:round;stroke-miterlimit:10;}
	.st37{fill:none;stroke:#EF7700;stroke-width:2;stroke-miterlimit:10;}
	.st38{opacity:0.15;fill:#FF0000;}
	.st39{fill:none;stroke:#FF0000;stroke-width:2.001000e-02;stroke-miterlimit:10;}
	.st40{fill:none;stroke:#FF0000;stroke-width:2.001126e-02;stroke-miterlimit:10;}
	.st41{fill:none;stroke:#FF0000;stroke-width:2.001112e-02;stroke-miterlimit:10;}
	.st42{fill:none;stroke:#FF0000;stroke-width:4.000000e-02;stroke-miterlimit:10;}
	.st43{fill:none;stroke:#FFFFFF;stroke-width:2;stroke-linecap:round;stroke-linejoin:round;}
	.st44{fill:none;stroke:#FFFFFF;stroke-width:2;stroke-linejoin:round;}
	.st45{fill:none;stroke:#FFFFFF;stroke-width:1.5;stroke-miterlimit:10;}
	.st46{fill-rule:evenodd;clip-rule:evenodd;fill:#FFFFFF;stroke:#FFFFFF;stroke-width:2;stroke-miterlimit:10;}
	.st47{fill:#3CC5FF;stroke:#3CC5FF;stroke-width:2;stroke-linecap:round;stroke-linejoin:round;stroke-miterlimit:10;}
	.st48{fill:none;stroke:#FFFFFF;stroke-width:3.7;stroke-linecap:round;stroke-linejoin:round;stroke-miterlimit:10;}
	.st49{fill:#FFFFFF;stroke:#FFFFFF;stroke-width:2;stroke-linecap:round;stroke-linejoin:round;stroke-miterlimit:10;}
	.st50{fill:none;stroke:#000000;stroke-width:3.7;stroke-linecap:round;stroke-linejoin:round;stroke-miterlimit:10;}
	.st51{fill:#30F2AA;}
	.st52{fill:none;stroke:#30F2AA;stroke-width:2;stroke-linecap:round;stroke-linejoin:round;stroke-miterlimit:10;}
	.st53{fill:#3CC5FF;}
	.st54{fill:none;stroke:#F9EF5F;stroke-width:2;stroke-linecap:round;stroke-linejoin:round;stroke-miterlimit:10;}
	.st55{fill:#FF7373;}
	.st56{fill:none;stroke:#FF7373;stroke-width:2;stroke-linecap:round;stroke-miterlimit:10;}
	.st57{opacity:0.3;fill:none;stroke:#FFFFFF;stroke-width:4;stroke-miterlimit:10;}
	.st58{fill:none;stroke:#000000;stroke-width:2;stroke-linecap:round;stroke-linejoin:round;stroke-miterlimit:10;}
	.st59{fill:none;stroke:#FFFFFF;stroke-width:2;stroke-linejoin:round;stroke-miterlimit:10;}
	.st60{fill:#FFFFFF;stroke:#FFFFFF;stroke-width:2;stroke-linejoin:round;stroke-miterlimit:10;}
	.st61{fill:#3CC5FF;stroke:#3CC5FF;stroke-width:2;stroke-linejoin:round;stroke-miterlimit:10;}
	.st62{fill:#FF7373;stroke:#FF7373;stroke-width:2;stroke-linejoin:round;stroke-miterlimit:10;}
	.st63{fill:#FF7373;stroke:#FF7373;stroke-width:2;stroke-linecap:round;stroke-linejoin:round;stroke-miterlimit:10;}
	.st64{fill:#F9EF5F;stroke:#F9EF5F;stroke-width:2;stroke-linejoin:round;stroke-miterlimit:10;}
	.st65{fill:#F9EF5F;stroke:#F9EF5F;stroke-width:2;stroke-linecap:round;stroke-linejoin:round;stroke-miterlimit:10;}
	.st66{fill:#F9EF5F;}
	
		.st67{fill:none;stroke:#FFFFFF;stroke-width:2;stroke-linecap:round;stroke-linejoin:round;stroke-miterlimit:10;stroke-dasharray:3,6;}
	
		.st68{fill:none;stroke:#FFFFFF;stroke-width:2;stroke-linecap:round;stroke-linejoin:round;stroke-miterlimit:10;stroke-dasharray:4,6;}
	.st69{fill-rule:evenodd;clip-rule:evenodd;fill:#FCFCFC;}
</style>
<g id="Layer_1" class="st0">
	<rect class="st1" width="96" height="96"/>
</g>
<g id="Grid" class="st0">
	<g class="st1">
		<path class="st2" d="M84,80H12c-2.2,0-4-1.8-4-4V20c0-2.2,1.8-4,4-4h72c2.2,0,4,1.8,4,4v56C88,78.2,86.2,80,84,80z"/>
		<path class="st2" d="M80,12v72c0,2.2-1.8,4-4,4H20c-2.2,0-4-1.8-4-4V12c0-2.2,1.8-4,4-4h56C78.2,8,80,9.8,80,12z"/>
		<path class="st2" d="M84,16v64c0,2.2-1.8,4-4,4H16c-2.2,0-4-1.8-4-4V16c0-2.2,1.8-4,4-4h64C82.2,12,84,13.8,84,16z"/>
		<path class="st3" d="M0,0v96h96V0H0z M88,88H8V8h80V88z"/>
	</g>
</g>
<g id="Outline_Path">
</g>
<g id="Icon">
	<g>
		<rect class="st18" width="96" height="96"/>
		<g id="Group_318" transform="translate(316.646 1682.579)">
			<path id="Rectangle_489" class="st8" d="M-284.7-1657.1L-284.7-1657.1c2.6,0,4.5,2,4.5,4.5v0.1c0,2.5-2,4.5-4.5,4.5h-0.1
				c-2.5,0-4.5-2-4.5-4.5v-0.1C-289.1-1655.1-287.2-1657.1-284.7-1657.1z"/>
			<path id="Rectangle_490" class="st8" d="M-268.7-1657.1L-268.7-1657.1c2.6,0,4.5,2,4.5,4.5v0.1c0,2.5-2,4.5-4.5,4.5h-0.1
				c-2.5,0-4.5-2-4.5-4.5v-0.1C-273.1-1655.1-271.2-1657.1-268.7-1657.1z"/>
			<path id="Rectangle_491" class="st8" d="M-252.7-1657.1L-252.7-1657.1c2.6,0,4.5,2,4.5,4.5v0.1c0,2.5-2,4.5-4.5,4.5h-0.1
				c-2.5,0-4.5-2-4.5-4.5v-0.1C-257.1-1655.1-255.2-1657.1-252.7-1657.1z"/>
		</g>
		<g id="Group_318_1_" transform="translate(316.646 1682.579)">
			<path id="Rectangle_489_1_" class="st8" d="M-284.2-1643.6L-284.2-1643.6c2.6,0,4.5,2,4.5,4.5v0.1c0,2.5-2,4.5-4.5,4.5h-0.1
				c-2.5,0-4.5-2-4.5-4.5v-0.1C-288.6-1641.6-286.7-1643.6-284.2-1643.6z"/>
			<path id="Rectangle_490_1_" class="st8" d="M-268.2-1643.6L-268.2-1643.6c2.6,0,4.5,2,4.5,4.5v0.1c0,2.5-2,4.5-4.5,4.5h-0.1
				c-2.5,0-4.5-2-4.5-4.5v-0.1C-272.6-1641.6-270.7-1643.6-268.2-1643.6z"/>
			<path id="Rectangle_491_1_" class="st8" d="M-252.2-1643.6L-252.2-1643.6c2.6,0,4.5,2,4.5,4.5v0.1c0,2.5-2,4.5-4.5,4.5h-0.1
				c-2.5,0-4.5-2-4.5-4.5v-0.1C-256.6-1641.6-254.7-1643.6-252.2-1643.6z"/>
		</g>
		<g id="Group_318_2_" transform="translate(316.646 1682.579)">
			<path id="Rectangle_489_2_" class="st8" d="M-284.2-1630.6L-284.2-1630.6c2.6,0,4.5,2,4.5,4.5v0.1c0,2.5-2,4.5-4.5,4.5h-0.1
				c-2.5,0-4.5-2-4.5-4.5v-0.1C-288.6-1628.6-286.7-1630.6-284.2-1630.6z"/>
			<path id="Rectangle_490_2_" class="st8" d="M-268.2-1630.6L-268.2-1630.6c2.6,0,4.5,2,4.5,4.5v0.1c0,2.5-2,4.5-4.5,4.5h-0.1
				c-2.5,0-4.5-2-4.5-4.5v-0.1C-272.6-1628.6-270.7-1630.6-268.2-1630.6z"/>
			<path id="Rectangle_491_2_" class="st8" d="M-252.2-1630.6L-252.2-1630.6c2.6,0,4.5,2,4.5,4.5v0.1c0,2.5-2,4.5-4.5,4.5h-0.1
				c-2.5,0-4.5-2-4.5-4.5v-0.1C-256.6-1628.6-254.7-1630.6-252.2-1630.6z"/>
		</g>
		<g id="Group_318_3_" transform="translate(316.646 1682.579)">
			<path id="Rectangle_490_3_" class="st8" d="M-268.2-1617.6L-268.2-1617.6c2.6,0,4.5,2,4.5,4.5v0.1c0,2.5-2,4.5-4.5,4.5h-0.1
				c-2.5,0-4.5-2-4.5-4.5v-0.1C-272.6-1615.6-270.7-1617.6-268.2-1617.6z"/>
		</g>
		<g id="Path_237">
			<path class="st8" d="M48,12c19.9,0,36,16.1,36,36S67.9,84,48,84S12,67.9,12,48S28.1,12,48,12 M48,8C25.9,8,8,25.9,8,48
				s17.9,40,40,40s40-17.9,40-40S70.1,8,48,8L48,8z"/>
		</g>
	</g>
</g>
<g id="grid-proselect">
</g>
<g id="icon-proselect">
</g>
<g id="text-proselect">
</g>
<g id="Layer_7">
</g>
</svg>
