<svg xmlns="http://www.w3.org/2000/svg" viewBox="0 0 144 144"><defs><style>.cls-1,.cls-2,.cls-3{fill:none;}.cls-2,.cls-3{stroke:#fff;stroke-linecap:round;stroke-width:4px;}.cls-2{stroke-miterlimit:10;}.cls-3{stroke-linejoin:round;}</style></defs><title>print_normal</title><g id="Layer_2" data-name="Layer 2"><g id="Icon"><rect class="cls-1" width="144" height="144"/><path class="cls-2" d="M36,77h72"/><path class="cls-2" d="M42,53H36"/><line class="cls-3" x1="58" y1="94" x2="86" y2="94"/><line class="cls-3" x1="58" y1="106" x2="86" y2="106"/><path class="cls-3" d="M100,78v38a6,6,0,0,1-6,6H49a6,6,0,0,1-6-6V78"/><path class="cls-3" d="M44,40V28a6,6,0,0,1,6-6H93a6,6,0,0,1,6,6V40"/><path class="cls-3" d="M35,96H28a6,6,0,0,1-6-6V47a6,6,0,0,1,6-6h88a6,6,0,0,1,6,6V90a6,6,0,0,1-6,6h-7"/></g></g></svg>