<svg xmlns="http://www.w3.org/2000/svg" viewBox="0 0 160 160"><defs><style>.cls-1{fill:#fff;}</style></defs><title>print_disabled_pressed</title><g id="Layer_2" data-name="Layer 2"><g id="Icon"><path class="cls-1" d="M117,93a20,20,0,1,0,20,20A20,20,0,0,0,117,93Zm0,36a16,16,0,0,1-15.86-14h31.72A16,16,0,0,1,117,129Zm-15.86-18a16,16,0,0,1,31.72,0Z"/><path class="cls-1" d="M80,0a80,80,0,1,0,80,80A80,80,0,0,0,80,0ZM43,106H36a8,8,0,0,1-8-8V55a8,8,0,0,1,8-8H50V36a8,8,0,0,1,8-8h43a8,8,0,0,1,8,8V47h15a8,8,0,0,1,8,8V79a2,2,0,0,1-4,0V55a4,4,0,0,0-4-4H36a4,4,0,0,0-4,4V98a4,4,0,0,0,4,4h7a2,2,0,0,1,0,4Zm9-45a2,2,0,0,1-2,2H44a2,2,0,0,1,0-4h6A2,2,0,0,1,52,61Zm33,71H57a8,8,0,0,1-8-8V87H44a2,2,0,0,1,0-4H98a2,2,0,0,1,0,4H53v37a4,4,0,0,0,4,4H85a2,2,0,0,1,0,4ZM66,104a2,2,0,0,1,0-4H82a2,2,0,0,1,0,4Zm16,10a2,2,0,0,1-2,2H66a2,2,0,0,1,0-4H80A2,2,0,0,1,82,114Zm34.84,27.81a28.71,28.71,0,1,1,28.7-28.7A28.7,28.7,0,0,1,116.84,141.81Z"/><path class="cls-1" d="M105,36a4,4,0,0,0-4-4H58a4,4,0,0,0-4,4V47h51Z"/></g></g></svg>