<svg xmlns="http://www.w3.org/2000/svg" viewBox="0 0 160 160"><defs><style>.cls-1{fill:#fff;}</style></defs><title>print_normal_pressed</title><g id="Layer_2" data-name="Layer 2"><g id="Icon"><path class="cls-1" d="M101,32H58a4,4,0,0,0-4,4V47h51V36A4,4,0,0,0,101,32Z"/><path class="cls-1" d="M80,0a80,80,0,1,0,80,80A80,80,0,0,0,80,0Zm30,124a8,8,0,0,1-8,8H57a8,8,0,0,1-8-8V87H44a2,2,0,0,1,0-4h72a2,2,0,0,1,0,4h-6ZM42,61a2,2,0,0,1,2-2h6a2,2,0,0,1,0,4H44A2,2,0,0,1,42,61Zm90,37a8,8,0,0,1-8,8h-7a2,2,0,0,1,0-4h7a4,4,0,0,0,4-4V55a4,4,0,0,0-4-4H36a4,4,0,0,0-4,4V98a4,4,0,0,0,4,4h7a2,2,0,0,1,0,4H36a8,8,0,0,1-8-8V55a8,8,0,0,1,8-8H50V36a8,8,0,0,1,8-8h43a8,8,0,0,1,8,8V47h15a8,8,0,0,1,8,8Z"/><path class="cls-1" d="M53,124a4,4,0,0,0,4,4h45a4,4,0,0,0,4-4V87H53Zm13-24H94a2,2,0,0,1,0,4H66a2,2,0,0,1,0-4Zm0,12H94a2,2,0,0,1,0,4H66a2,2,0,0,1,0-4Z"/></g></g></svg>