<svg xmlns="http://www.w3.org/2000/svg" viewBox="0 0 144 144"><defs><style>.cls-1{fill:#fff;}.cls-2,.cls-3,.cls-4{fill:none;}.cls-3,.cls-4{stroke:#fff;stroke-linecap:round;stroke-width:4px;}.cls-3{stroke-miterlimit:10;}.cls-4{stroke-linejoin:round;}</style></defs><title>print_warning</title><g id="Layer_2" data-name="Layer 2"><g id="Icon"><path class="cls-1" d="M94.64,117.11H123l-14.2-27.94Zm14.2-2.67a2.36,2.36,0,1,1,2.36-2.36A2.36,2.36,0,0,1,108.84,114.44Zm2.36-13.6v4.48a2.36,2.36,0,0,1-4.72,0v-4.48a2.36,2.36,0,0,1,4.72,0Z"/><path class="cls-1" d="M108.84,76.4a28.71,28.71,0,1,0,28.7,28.71A28.7,28.7,0,0,0,108.84,76.4Zm16.4,44.71H92.44a2.72,2.72,0,0,1-2.29-4L106.8,84.35a2.3,2.3,0,0,1,4.08,0l16.65,32.75A2.72,2.72,0,0,1,125.24,121.11Z"/><rect class="cls-2" width="144" height="144"/><path class="cls-3" d="M36,77H90"/><path class="cls-3" d="M42,53H36"/><line class="cls-4" x1="58" y1="94" x2="74" y2="94"/><line class="cls-4" x1="58" y1="106" x2="72" y2="106"/><path class="cls-4" d="M77,122H49a6,6,0,0,1-6-6V78"/><path class="cls-4" d="M44,40V28a6,6,0,0,1,6-6H93a6,6,0,0,1,6,6V40"/><path class="cls-4" d="M35,96H28a6,6,0,0,1-6-6V47a6,6,0,0,1,6-6h88a6,6,0,0,1,6,6V71"/></g></g></svg>