<svg xmlns="http://www.w3.org/2000/svg" viewBox="0 0 144 144"><defs><style>.cls-1,.cls-2,.cls-3{fill:none;}.cls-2,.cls-3{stroke:#fff;stroke-linecap:round;stroke-width:4px;}.cls-2{stroke-miterlimit:10;}.cls-3{stroke-linejoin:round;}.cls-4{fill:#fff;}</style></defs><title>print_disabled</title><g id="Layer_2" data-name="Layer 2"><g id="Icon"><rect class="cls-1" width="144" height="144"/><path class="cls-2" d="M36,77H90"/><path class="cls-2" d="M42,53H36"/><line class="cls-3" x1="58" y1="94" x2="74" y2="94"/><line class="cls-3" x1="58" y1="106" x2="72" y2="106"/><path class="cls-3" d="M77,122H49a6,6,0,0,1-6-6V78"/><path class="cls-3" d="M44,40V28a6,6,0,0,1,6-6H93a6,6,0,0,1,6,6V40"/><path class="cls-3" d="M35,96H28a6,6,0,0,1-6-6V47a6,6,0,0,1,6-6h88a6,6,0,0,1,6,6V71"/><path class="cls-4" d="M109,121a16,16,0,0,0,15.86-14H93.14A16,16,0,0,0,109,121Z"/><path class="cls-4" d="M109,89a16,16,0,0,0-15.86,14h31.72A16,16,0,0,0,109,89Z"/><path class="cls-4" d="M109,76.3A28.7,28.7,0,1,0,137.7,105,28.7,28.7,0,0,0,109,76.3Zm0,48.7a20,20,0,1,1,20-20A20,20,0,0,1,109,125Z"/></g></g></svg>