<svg xmlns="http://www.w3.org/2000/svg" viewBox="0 0 144 144"><defs><style>.cls-1,.cls-2,.cls-3{fill:none;}.cls-2,.cls-3{stroke:#fff;stroke-linecap:round;stroke-width:4px;}.cls-2{stroke-miterlimit:10;}.cls-3{stroke-linejoin:round;}.cls-4{fill:#fff;}</style></defs><title>print_locked</title><g id="Layer_2" data-name="Layer 2"><g id="Icon"><rect class="cls-1" width="144" height="144"/><path class="cls-2" d="M36,77H90"/><path class="cls-2" d="M42,53H36"/><line class="cls-3" x1="58" y1="94" x2="74" y2="94"/><line class="cls-3" x1="58" y1="106" x2="72" y2="106"/><path class="cls-3" d="M77,122H49a6,6,0,0,1-6-6V78"/><path class="cls-3" d="M44,40V28a6,6,0,0,1,6-6H93a6,6,0,0,1,6,6V40"/><path class="cls-3" d="M35,96H28a6,6,0,0,1-6-6V47a6,6,0,0,1,6-6h88a6,6,0,0,1,6,6V71"/><path class="cls-4" d="M116.27,91.94a4,4,0,0,0-4-4h-7a4,4,0,0,0-4,4v4.92h15Z"/><path class="cls-4" d="M118,100.86H99.57a4,4,0,0,0-4,4v13.08a4,4,0,0,0,4,4H118a4,4,0,0,0,4-4V104.86A4,4,0,0,0,118,100.86Zm-7.2,12.29v4.71a2,2,0,0,1-4,0v-4.71a3.52,3.52,0,1,1,4,0Z"/><path class="cls-4" d="M108.77,76.23a28.71,28.71,0,1,0,28.7,28.71A28.71,28.71,0,0,0,108.77,76.23ZM126,117.94a8,8,0,0,1-8,8H99.57a8,8,0,0,1-8-8V104.86a8,8,0,0,1,5.7-7.66V91.94a8,8,0,0,1,8-8h7a8,8,0,0,1,8,8V97.2a8,8,0,0,1,5.7,7.66Z"/></g></g></svg>