<?xml version="1.0" encoding="utf-8"?>
<!-- Generator: Adobe Illustrator 24.0.1, SVG Export Plug-In . SVG Version: 6.00 Build 0)  -->
<svg version="1.1" id="Layer_1" xmlns="http://www.w3.org/2000/svg" xmlns:xlink="http://www.w3.org/1999/xlink" x="0px" y="0px"
	 viewBox="0 0 68 68" style="enable-background:new 0 0 68 68;" xml:space="preserve">
<style type="text/css">
	.st0{display:none;}
	.st1{display:inline;}
	.st2{opacity:0.5;fill:#FF0000;enable-background:new    ;}
	.st3{fill:none;stroke:#FF0000;stroke-width:6.000000e-02;stroke-miterlimit:10;}
	.st4{fill:none;stroke:#FF0000;stroke-width:2.833333e-02;stroke-miterlimit:10;}
	.st5{fill:none;}
	.st6{fill:none;stroke:#FFFFFF;stroke-width:4;stroke-linecap:round;stroke-linejoin:round;stroke-miterlimit:10;}
</style>
<g id="Layer_1_1_" class="st0">
	<rect class="st1" width="68" height="68"/>
</g>
<g id="Grid" class="st0">
	<g class="st1">
		<path class="st2" d="M0,0v68h68V0H0z M62,62H6V6h56V62z"/>
		<path class="st3" d="M59,56H9c-1.7,0-3-1.3-3-3V15c0-1.7,1.3-3,3-3h50c1.7,0,3,1.3,3,3v38C62,54.7,60.7,56,59,56z"/>
		<path class="st3" d="M56,9v50c0,1.7-1.3,3-3,3H15c-1.7,0-3-1.3-3-3V9c0-1.7,1.3-3,3-3h38C54.7,6,56,7.3,56,9z"/>
		<path class="st3" d="M59,12v44c0,1.7-1.3,3-3,3H12c-1.7,0-3-1.3-3-3V12c0-1.7,1.3-3,3-3h44C57.7,9,59,10.3,59,12z"/>
		<line class="st4" x1="34" y1="6" x2="34" y2="62"/>
		<line class="st4" x1="62" y1="34" x2="6" y2="34"/>
	</g>
</g>
<g id="Outline_Path">
</g>
<g id="grid-proselect">
</g>
<g id="icon-proselect">
</g>
<g id="text-proselect">
</g>
<g id="Layer_7">
</g>
<g>
	<rect class="st5" width="68" height="68"/>
	<path id="Completion_4_" class="st6" d="M11,39l10.1,10.7c1.6,1.7,4.2,1.7,5.8,0L57,19"/>
</g>
</svg>
