<svg xmlns="http://www.w3.org/2000/svg" viewBox="0 0 160 160"><defs><style>.cls-1{fill:#fff;}</style></defs><title>scan_locked_locked_pressed</title><g id="Layer_2" data-name="Layer 2"><g id="Icon"><path class="cls-1" d="M114,72h18.88L110,49.21V68A4,4,0,0,0,114,72Z"/><path class="cls-1" d="M80,0a80,80,0,1,0,80,80A80,80,0,0,0,80,0ZM20.08,48.84a8,8,0,0,1,6.86-6.77,2,2,0,0,1,.52,4A4,4,0,0,0,24,49.42a2,2,0,0,1-2,1.71l-.28,0A2,2,0,0,1,20.08,48.84Zm-.08,8a2,2,0,1,1,4,0v7.75a2,2,0,0,1-4,0Zm0,15.51a2,2,0,0,1,4,0v7.75a2,2,0,0,1-4,0ZM20,87.9a2,2,0,0,1,4,0v7.75a2,2,0,0,1-4,0Zm0,15.5a2,2,0,0,1,4,0v7.76a2,2,0,0,1-4,0Zm9.22,20.81a2,2,0,0,1-2,1.74H27a8,8,0,0,1-6.89-6.74,2,2,0,0,1,4-.59A4,4,0,0,0,27.49,122,2,2,0,0,1,29.22,124.21ZM35,42H42.7a2,2,0,0,1,0,4H35a2,2,0,0,1,0-4Zm7.79,84H35a2,2,0,0,1,0-4h7.75a2,2,0,1,1,0,4Zm7.72-84h7.75a2,2,0,1,1,0,4H50.46a2,2,0,0,1,0-4Zm7.79,84H50.49a2,2,0,0,1,0-4h7.76a2,2,0,0,1,0,4ZM70,126H66a2,2,0,0,1,0-4h4a2,2,0,0,1,0,4Zm0-80H66a2,2,0,0,1,0-4h4a2,2,0,0,1,0,4Zm12,84a2,2,0,0,1-4,0V38a2,2,0,0,1,4,0v4h23.68a6.69,6.69,0,0,1,4.8,2l27.63,27.52A6.66,6.66,0,0,1,140,76.21V82a2,2,0,0,1-4,0V76.21a1.49,1.49,0,0,0,0-.21H114a8,8,0,0,1-8-8V46c-.11,0-.21,0-.32,0H82Zm46.27-24.8V99.94a8,8,0,0,0-8-8h-7a8,8,0,0,0-8,8v5.26a8,8,0,0,0-5.7,7.66v13.08a8,8,0,0,0,8,8H126a8,8,0,0,0,8-8V112.86A8,8,0,0,0,128.27,105.2Zm-19-5.26a4,4,0,0,1,4-4h7a4,4,0,0,1,4,4v4.92h-15Zm20.7,26a4,4,0,0,1-4,4h-18.4a4,4,0,0,1-4-4V112.86a4,4,0,0,1,4-4H126a4,4,0,0,1,4,4Zm-13.2-11.2a3.52,3.52,0,0,0-2,6.41v4.71a2,2,0,0,0,4,0v-4.71a3.52,3.52,0,0,0-2-6.41Zm.07,27.07a28.71,28.71,0,1,1,28.7-28.7A28.7,28.7,0,0,1,116.84,141.81Z"/></g></g></svg>