<svg xmlns="http://www.w3.org/2000/svg" viewBox="0 0 144 144"><defs><style>.cls-1,.cls-2,.cls-3,.cls-4{fill:none;}.cls-2,.cls-3,.cls-4{stroke:#fff;stroke-linecap:round;stroke-width:4px;}.cls-2,.cls-3{stroke-linejoin:round;}.cls-3{stroke-dasharray:7.75 7.75;}.cls-4{stroke-miterlimit:10;}.cls-5{fill:#fff;}</style></defs><title>scan_disabled</title><g id="Layer_2" data-name="Layer 2"><g id="Icon"><rect class="cls-1" width="144" height="144"/><line class="cls-2" x1="62" y1="116" x2="58" y2="116"/><path class="cls-3" d="M50.25,116H20a6,6,0,0,1-6-6V42a6,6,0,0,1,6-6H54.12"/><line class="cls-2" x1="58" y1="36" x2="62" y2="36"/><path class="cls-4" d="M72,122V30"/><path class="cls-2" d="M72,36H97.68A4.68,4.68,0,0,1,101,37.43L128.69,65A4.66,4.66,0,0,1,130,68.21V74"/><path class="cls-2" d="M100,37V60a6,6,0,0,0,6,6h23"/><path class="cls-5" d="M109,121a16,16,0,0,0,15.86-14H93.14A16,16,0,0,0,109,121Z"/><path class="cls-5" d="M109,89a16,16,0,0,0-15.86,14h31.72A16,16,0,0,0,109,89Z"/><path class="cls-5" d="M109,76.3A28.7,28.7,0,1,0,137.7,105,28.7,28.7,0,0,0,109,76.3Zm0,48.7a20,20,0,1,1,20-20A20,20,0,0,1,109,125Z"/></g></g></svg>