<svg id="Icon" xmlns="http://www.w3.org/2000/svg" viewBox="0 0 68 68"><rect width="68" height="68" fill="none"/><path d="M56.08,31.24c-.37-.23-4.14-2.76-4.14-2.76l-1.38-3.22s1.24-4.5,1.38-5.06a1.48,1.48,0,0,0-.46-1.38l-2.3-2.3a1.46,1.46,0,0,0-1.38-.46c-.42.1-5.06,1.38-5.06,1.38l-3.22-1.38s-2.45-3.65-2.76-4.14A1.88,1.88,0,0,0,35.38,11H32.62a1.88,1.88,0,0,0-1.38.92c-.23.37-2.76,4.14-2.76,4.14l-3.22,1.38s-4-1.24-4.6-1.38a2.45,2.45,0,0,0-1.84.46l-2.3,2.3a2.41,2.41,0,0,0-.46,1.84c.1.42,1.84,4.6,1.84,4.6l-1.84,3.22s-3.65,2.45-4.14,2.76A1.88,1.88,0,0,0,11,32.62v2.76a1.88,1.88,0,0,0,.92,1.38c.37.23,4.14,2.76,4.14,2.76l1.38,3.22s-1.24,4-1.38,4.6a2.45,2.45,0,0,0,.46,1.84l2.3,2.3a2.41,2.41,0,0,0,1.84.46c.42-.1,4.14-1.84,4.14-1.84l3.68,1.84s2.45,3.65,2.76,4.14a1.84,1.84,0,0,0,1.38.92h2.76a1.88,1.88,0,0,0,1.38-.92c.23-.37,2.76-4.14,2.76-4.14l3.22-1.38s4.5,1.24,5.06,1.38a1.48,1.48,0,0,0,1.38-.46l2.3-2.3a1.46,1.46,0,0,0,.46-1.38c-.1-.42-1.84-5.06-1.84-5.06l1.84-3.22s3.65-2.45,4.14-2.76A1.84,1.84,0,0,0,57,35.38V32.62A1.88,1.88,0,0,0,56.08,31.24Z" fill="none" stroke="#fff" stroke-linecap="round" stroke-linejoin="round" stroke-width="4"/><circle cx="34" cy="34" r="10" fill="none" stroke="#fff" stroke-linecap="round" stroke-linejoin="round" stroke-width="4"/></svg>