<?xml version="1.0" encoding="utf-8"?>
<!-- Generator: Adobe Illustrator 23.1.0, SVG Export Plug-In . SVG Version: 6.00 Build 0)  -->
<svg version="1.1" xmlns="http://www.w3.org/2000/svg" xmlns:xlink="http://www.w3.org/1999/xlink" x="0px" y="0px"
	 viewBox="0 0 144 144" style="enable-background:new 0 0 144 144;" xml:space="preserve">
<style type="text/css">
	.st0{display:none;}
	.st1{display:inline;}
	.st2{fill:none;stroke:#FF0000;stroke-width:8.000000e-02;stroke-miterlimit:10;}
	.st3{opacity:0.37;fill:#FF0000;}
	.st4{fill:none;stroke:#FF0000;stroke-width:0.1;stroke-miterlimit:10;}
	.st5{display:inline;opacity:0.37;}
	.st6{fill:none;stroke:#FFFFFF;stroke-width:4;stroke-miterlimit:10;}
	.st7{opacity:0.3;}
	.st8{fill:#FFFFFF;}
	.st9{opacity:0.7;}
	.st10{opacity:0.5;fill:#FF0000;}
	.st11{fill:none;stroke:#FF0000;stroke-width:6.000000e-02;stroke-miterlimit:10;}
	.st12{fill:none;stroke:#FF0000;stroke-width:2.833333e-02;stroke-miterlimit:10;}
	.st13{display:inline;fill:none;}
	.st14{display:inline;opacity:0.37;fill:#FF0000;}
	.st15{fill:none;stroke:#FF0000;stroke-width:4.002251e-02;stroke-miterlimit:10;}
	.st16{fill:none;stroke:#FF0000;stroke-width:4.002224e-02;stroke-miterlimit:10;}
	.st17{display:inline;fill:none;stroke:#FF0000;stroke-width:0.1;stroke-miterlimit:10;}
	.st18{fill:none;}
	.st19{fill:none;stroke:#FFFFFF;stroke-width:2;stroke-linecap:round;stroke-linejoin:round;stroke-miterlimit:10;}
	.st20{fill:none;stroke:#FFFFFF;stroke-width:2;stroke-linecap:round;stroke-miterlimit:10;}
	.st21{fill:#7EC7FC;stroke:#FFFFFF;stroke-width:2;stroke-linecap:round;stroke-miterlimit:10;}
	.st22{fill:none;stroke:#FFFFFF;stroke-width:4;stroke-linecap:round;stroke-miterlimit:10;}
	.st23{fill-rule:evenodd;clip-rule:evenodd;fill:none;stroke:#FFFFFF;stroke-width:4;stroke-linecap:round;stroke-miterlimit:10;}
	.st24{fill:none;stroke:#FFFFFF;stroke-width:4;stroke-linecap:round;stroke-linejoin:round;stroke-miterlimit:10;}
	.st25{fill:#FFFFFF;stroke:#FFFFFF;stroke-width:4;stroke-linecap:round;stroke-linejoin:round;stroke-miterlimit:10;}
	.st26{fill:none;stroke:#000000;stroke-width:4;stroke-linecap:round;stroke-linejoin:round;stroke-miterlimit:10;}
	.st27{fill:#FFFFFF;stroke:#FFFFFF;stroke-width:4;stroke-miterlimit:10;}
	.st28{fill:none;stroke:#FFFFFF;stroke-width:4;stroke-linecap:round;stroke-linejoin:round;}
	.st29{fill-rule:evenodd;clip-rule:evenodd;fill:none;stroke:#FFFFFF;stroke-width:2;stroke-linecap:round;stroke-miterlimit:10;}
	.st30{fill:none;stroke:#FFFFFF;stroke-width:2;stroke-miterlimit:10;}
	.st31{fill-rule:evenodd;clip-rule:evenodd;fill:none;stroke:#FFFFFF;stroke-width:2;stroke-miterlimit:10;}
	.st32{fill:none;stroke:#FFFFFF;stroke-width:4;stroke-linecap:round;stroke-linejoin:round;stroke-dasharray:7.7535,7.7535;}
	.st33{display:none;fill:none;stroke:#FFFFFF;stroke-width:4;stroke-linecap:round;stroke-linejoin:round;stroke-miterlimit:10;}
	.st34{fill:#FFFFFF;enable-background:new    ;}
	.st35{fill-rule:evenodd;clip-rule:evenodd;fill:none;stroke:#FFFFFF;stroke-width:4;stroke-miterlimit:10;}
	
		.st36{fill-rule:evenodd;clip-rule:evenodd;fill:none;stroke:#FCFCFC;stroke-width:4;stroke-linecap:round;stroke-linejoin:round;stroke-miterlimit:10;}
	.st37{fill:none;stroke:#EF7700;stroke-width:2;stroke-miterlimit:10;}
	.st38{opacity:0.15;fill:#FF0000;}
	.st39{fill:none;stroke:#FF0000;stroke-width:2.001000e-02;stroke-miterlimit:10;}
	.st40{fill:none;stroke:#FF0000;stroke-width:2.001126e-02;stroke-miterlimit:10;}
	.st41{fill:none;stroke:#FF0000;stroke-width:2.001112e-02;stroke-miterlimit:10;}
	.st42{fill:none;stroke:#FF0000;stroke-width:4.000000e-02;stroke-miterlimit:10;}
	.st43{fill:none;stroke:#FFFFFF;stroke-width:2;stroke-linecap:round;stroke-linejoin:round;}
	.st44{fill:none;stroke:#FFFFFF;stroke-width:2;stroke-linejoin:round;}
	.st45{fill:none;stroke:#FFFFFF;stroke-width:1.5;stroke-miterlimit:10;}
	.st46{fill-rule:evenodd;clip-rule:evenodd;fill:#FFFFFF;stroke:#FFFFFF;stroke-width:2;stroke-miterlimit:10;}
	.st47{fill:#3CC5FF;stroke:#3CC5FF;stroke-width:2;stroke-linecap:round;stroke-linejoin:round;stroke-miterlimit:10;}
	.st48{fill:none;stroke:#FFFFFF;stroke-width:3.7;stroke-linecap:round;stroke-linejoin:round;stroke-miterlimit:10;}
	.st49{fill:#FFFFFF;stroke:#FFFFFF;stroke-width:2;stroke-linecap:round;stroke-linejoin:round;stroke-miterlimit:10;}
	.st50{fill:none;stroke:#000000;stroke-width:3.7;stroke-linecap:round;stroke-linejoin:round;stroke-miterlimit:10;}
	.st51{fill:#30F2AA;}
	.st52{fill:none;stroke:#30F2AA;stroke-width:2;stroke-linecap:round;stroke-linejoin:round;stroke-miterlimit:10;}
	.st53{fill:#3CC5FF;}
	.st54{fill:none;stroke:#F9EF5F;stroke-width:2;stroke-linecap:round;stroke-linejoin:round;stroke-miterlimit:10;}
	.st55{fill:#FF7373;}
	.st56{fill:none;stroke:#FF7373;stroke-width:2;stroke-linecap:round;stroke-miterlimit:10;}
	.st57{opacity:0.3;fill:none;stroke:#FFFFFF;stroke-width:4;stroke-miterlimit:10;}
	.st58{fill:none;stroke:#000000;stroke-width:2;stroke-linecap:round;stroke-linejoin:round;stroke-miterlimit:10;}
	.st59{fill:none;stroke:#FFFFFF;stroke-width:2;stroke-linejoin:round;stroke-miterlimit:10;}
	.st60{fill:#FFFFFF;stroke:#FFFFFF;stroke-width:2;stroke-linejoin:round;stroke-miterlimit:10;}
	.st61{fill:#3CC5FF;stroke:#3CC5FF;stroke-width:2;stroke-linejoin:round;stroke-miterlimit:10;}
	.st62{fill:#FF7373;stroke:#FF7373;stroke-width:2;stroke-linejoin:round;stroke-miterlimit:10;}
	.st63{fill:#FF7373;stroke:#FF7373;stroke-width:2;stroke-linecap:round;stroke-linejoin:round;stroke-miterlimit:10;}
	.st64{fill:#F9EF5F;stroke:#F9EF5F;stroke-width:2;stroke-linejoin:round;stroke-miterlimit:10;}
	.st65{fill:#F9EF5F;stroke:#F9EF5F;stroke-width:2;stroke-linecap:round;stroke-linejoin:round;stroke-miterlimit:10;}
	.st66{fill:#F9EF5F;}
	
		.st67{fill:none;stroke:#FFFFFF;stroke-width:2;stroke-linecap:round;stroke-linejoin:round;stroke-miterlimit:10;stroke-dasharray:3,6;}
	
		.st68{fill:none;stroke:#FFFFFF;stroke-width:2;stroke-linecap:round;stroke-linejoin:round;stroke-miterlimit:10;stroke-dasharray:4,6;}
	.st69{fill-rule:evenodd;clip-rule:evenodd;fill:#FCFCFC;}
</style>
<g id="Layer_1" class="st0">
	<rect class="st1" width="144" height="144"/>
</g>
<g id="Grid" class="st0">
	<g class="st1">
		<path class="st3" d="M0,0v144h144V0H0z M132,132H12V12h120V132z"/>
		<path class="st4" d="M124,116H20c-4.4,0-8-3.6-8-8V36c0-4.4,3.6-8,8-8h104c4.4,0,8,3.6,8,8v72C132,112.4,128.4,116,124,116z"/>
		<path class="st4" d="M116,20v104c0,4.4-3.6,8-8,8H36c-4.4,0-8-3.6-8-8V20c0-4.4,3.6-8,8-8h72C112.4,12,116,15.6,116,20z"/>
		<path class="st4" d="M124,28v88c0,4.4-3.6,8-8,8H28c-4.4,0-8-3.6-8-8V28c0-4.4,3.6-8,8-8h88C120.4,20,124,23.6,124,28z"/>
	</g>
</g>
<g id="Outline_Path">
</g>
<g id="Icon">
	<g>
		<rect class="st18" width="144" height="144"/>
		<path class="st24" d="M94,72c0,12.2-9.8,22-22,22s-22-9.8-22-22s9.8-22,22-22S94,59.8,94,72z M120,66c-0.8-0.5-9-6-9-6l-3-7
			c0,0,2.7-9.8,3-11c0.3-1.1-0.2-2.2-1-3l-5-5c-0.8-0.8-1.9-1.3-3-1c-0.9,0.2-11,3-11,3l-7-3c0,0-5.3-7.9-6-9c-0.6-1-1.8-2-3-2h-6
			c-1.1,0-2.4,1-3,2c-0.5,0.8-6,9-6,9l-7,3c0,0-8.8-2.7-10-3c-1.1-0.3-3.2,0.2-4,1l-5,5c-0.8,0.8-1.3,2.9-1,4c0.2,0.9,4,10,4,10
			l-4,7c0,0-7.9,5.3-9,6c-1,0.6-2,1.8-2,3v6c0,1.1,1,2.4,2,3c0.8,0.5,9,6,9,6l3,7c0,0-2.7,8.8-3,10c-0.3,1.1,0.2,3.2,1,4l5,5
			c0.8,0.8,2.9,1.3,4,1c0.9-0.2,9-4,9-4l8,4c0,0,5.3,7.9,6,9c0.6,1,1.8,2,3,2h6c1.1,0,2.4-1,3-2c0.5-0.8,6-9,6-9l7-3
			c0,0,9.8,2.7,11,3c1.1,0.3,2.2-0.2,3-1l5-5c0.8-0.8,1.3-1.9,1-3c-0.2-0.9-4-11-4-11l4-7c0,0,7.9-5.3,9-6c1-0.6,2-1.8,2-3l0-6
			C122,67.8,121,66.6,120,66z"/>
	</g>
</g>
<g id="grid-proselect">
</g>
<g id="icon-proselect">
</g>
<g id="text-proselect">
</g>
<g id="Layer_7">
</g>
</svg>
