<svg xmlns="http://www.w3.org/2000/svg" viewBox="0 0 144 144"><defs><style>.cls-1,.cls-2{fill:none;}.cls-2{stroke:#fff;stroke-linecap:round;stroke-linejoin:round;stroke-width:4px;}.cls-3{fill:#fff;}</style></defs><title>smarttask_l</title><g id="Layer_2" data-name="Layer 2"><g id="Icon"><rect class="cls-1" width="144" height="144"/><g id="auto-completion"><line class="cls-2" x1="98" y1="67" x2="98" y2="73"/><path class="cls-2" d="M98,81c9.86,0,13,4.86,13,12a14.83,14.83,0,0,1-4,10c-1.94,2.14-3,6.51-3,10,0,2,0,2-2,2H94c-2.08,0-2,0-2-2,0-3.47-1.06-7.87-3-10a14.83,14.83,0,0,1-4-10C85,85.86,89.18,81,98,81Z"/><line class="cls-2" x1="92" y1="122" x2="104" y2="122"/><line class="cls-2" x1="80" y1="72" x2="85" y2="76"/><line class="cls-2" x1="73" y1="84" x2="79" y2="86"/><line class="cls-2" x1="122" y1="84" x2="117" y2="86"/><line class="cls-2" x1="115" y1="72" x2="110" y2="76"/></g><polyline class="cls-2" points="40 50 44 54 52 47"/><line class="cls-2" x1="59.83" y1="51" x2="77.21" y2="51"/><line class="cls-2" x1="60" y1="68" x2="69" y2="68"/><line class="cls-2" x1="60" y1="83" x2="64" y2="83"/><circle class="cls-3" cx="45" cy="68" r="3"/><circle class="cls-3" cx="45" cy="84" r="3"/><path class="cls-2" d="M98,57V28a6,6,0,0,0-6-6H28a6,6,0,0,0-6,6v88a6,6,0,0,0,6,6H82"/></g></g></svg>