<svg xmlns="http://www.w3.org/2000/svg" viewBox="0 0 68 68"><defs><style>.cls-1,.cls-2,.cls-4{fill:none;}.cls-1,.cls-2,.cls-3{stroke:#fff;stroke-linejoin:round;stroke-width:4px;}.cls-2,.cls-3{stroke-linecap:round;}.cls-3{fill:#fff;}</style></defs><title>status_m</title><g id="Layer_2" data-name="Layer 2"><g id="Icon"><path class="cls-1" d="M42.58,52a8,8,0,0,1-16,0"/><path class="cls-2" d="M52.2,52.38H15.83a1.83,1.83,0,0,1-1.44-3l.23-.3a15.07,15.07,0,0,0,3.16-9.23v-9a16.44,16.44,0,0,1,15.45-16.5,16.15,16.15,0,0,1,17,16V39.9a15.08,15.08,0,0,0,3.17,9.23l.23.3A1.83,1.83,0,0,1,52.2,52.38Z"/><circle class="cls-3" cx="34.02" cy="11.25" r="3.25"/><rect class="cls-4" width="68" height="68"/></g></g></svg>