<svg xmlns="http://www.w3.org/2000/svg" viewBox="0 0 68 68"><defs><style>.cls-1,.cls-3{fill:none;}.cls-1{stroke:#fff;stroke-linecap:round;stroke-miterlimit:10;stroke-width:4px;fill-rule:evenodd;}.cls-2{fill:#fff;}</style></defs><title>supplies_m</title><g id="Layer_2" data-name="Layer 2"><g id="Icon"><path class="cls-1" d="M8.08,10h0a3.16,3.16,0,0,1,3.16,3.15V54.86A3.15,3.15,0,0,0,14.38,58H53.51a3.15,3.15,0,0,0,3.16-3.15V13.15A3.15,3.15,0,0,1,59.83,10h0"/><circle class="cls-2" cx="23.67" cy="43.86" r="3" transform="translate(-25.91 48.94) rotate(-67.5)"/><circle class="cls-2" cx="34.81" cy="43.86" r="3" transform="translate(-19.18 58.68) rotate(-66.92)"/><circle class="cls-2" cx="45.1" cy="43.86" r="3" transform="translate(-12.68 68.74) rotate(-67.5)"/><circle class="cls-2" cx="29.67" cy="33.57" r="3"/><circle class="cls-2" cx="39.1" cy="33.57" r="3"/><path class="cls-2" d="M37.44,24.17a3,3,0,1,1-3-3A3,3,0,0,1,37.44,24.17Z"/><rect class="cls-3" width="68" height="68"/></g></g></svg>