<svg xmlns="http://www.w3.org/2000/svg" viewBox="0 0 160 160"><defs><style>.cls-1{fill:#fff;}</style></defs><title>usb_normal_pressed</title><g id="Layer_2" data-name="Layer 2"><g id="Icon"><path class="cls-1" d="M108,48H28a4,4,0,0,0-4,4v56a4,4,0,0,0,4,4h80a4,4,0,0,0,4-4V52A4,4,0,0,0,108,48ZM95,86V82H64l.12.08a4.16,4.16,0,0,1,1.26,2.25,11.8,11.8,0,0,0,.93,2.23,5.89,5.89,0,0,0,3.53,3.07A34.27,34.27,0,0,0,77,90h3V87H90V97H80V94H71a8.69,8.69,0,0,1-8-6,23.13,23.13,0,0,0-1.3-2.93c-1-1.71-1.77-2.68-3.7-3.07H44.71a7,7,0,1,1,0-4h3c4.63,0,6.49-2.39,8.83-5.17C59.14,69.74,61.94,66,69,66h2.42a5,5,0,1,1,0,4H69c-5.4,0-7,2.26-9.39,5.11A31.2,31.2,0,0,1,57.13,78H95V74l10,6Z"/><path class="cls-1" d="M134,60H116v40h17.79A2.21,2.21,0,0,0,136,97.79V62A2,2,0,0,0,134,60Zm-4,30h-8a2,2,0,0,1,0-4h8a2,2,0,0,1,0,4Zm0-16h-8a2,2,0,0,1,0-4h8a2,2,0,0,1,0,4Z"/><path class="cls-1" d="M80,0a80,80,0,1,0,80,80A80,80,0,0,0,80,0Zm53.79,104H116v4a8,8,0,0,1-8,8H28a8,8,0,0,1-8-8V52a8,8,0,0,1,8-8h80a8,8,0,0,1,8,8v4h18a6,6,0,0,1,6,6V97.79A6.22,6.22,0,0,1,133.79,104Z"/></g></g></svg>