<svg xmlns="http://www.w3.org/2000/svg" viewBox="0 0 160 160"><defs><style>.cls-1{fill:#fff;}</style></defs><title>usb_warning_pressed</title><g id="Layer_2" data-name="Layer 2"><g id="Icon"><path class="cls-1" d="M80,0a80,80,0,1,0,80,80A80,80,0,0,0,80,0Zm0,116H28a8,8,0,0,1-8-8V52a8,8,0,0,1,8-8h80a8,8,0,0,1,8,8v4h18a6,6,0,0,1,6,6V84.79a2,2,0,1,1-4,0V62a2,2,0,0,0-2-2H116V77a2,2,0,0,1-4,0V52a4,4,0,0,0-4-4H28a4,4,0,0,0-4,4v56a4,4,0,0,0,4,4H80a2,2,0,0,1,0,4Zm52-44a2,2,0,0,1-2,2h-8a2,2,0,0,1,0-4h8A2,2,0,0,1,132,72ZM64,82l.12.08a4.16,4.16,0,0,1,1.26,2.25,11.8,11.8,0,0,0,.93,2.23,5.89,5.89,0,0,0,3.53,3.07A34.27,34.27,0,0,0,77,90h3V87H90V97H80V94H71a8.69,8.69,0,0,1-8-6,23.13,23.13,0,0,0-1.3-2.93c-1-1.71-1.77-2.68-3.7-3.07H44.71a7,7,0,1,1,0-4h3c4.63,0,6.49-2.39,8.83-5.17C59.14,69.74,61.94,66,69,66h2.42a5,5,0,1,1,0,4H69c-5.4,0-7,2.26-9.39,5.11A31.2,31.2,0,0,1,57.13,78H95V74l10,6L95,86V82Zm52.84,59.81a28.71,28.71,0,1,1,28.7-28.7A28.7,28.7,0,0,1,116.84,141.81Z"/><path class="cls-1" d="M116.84,117.72a2.36,2.36,0,1,0,2.36,2.36A2.36,2.36,0,0,0,116.84,117.72Z"/><path class="cls-1" d="M114.48,108.84v4.48a2.36,2.36,0,0,0,4.72,0v-4.48a2.36,2.36,0,0,0-4.72,0Z"/><path class="cls-1" d="M118.88,92.35a2.3,2.3,0,0,0-4.08,0L98.15,125.1a2.72,2.72,0,0,0,2.29,4h32.8a2.72,2.72,0,0,0,2.29-4Zm-16.24,32.76,14.2-27.94L131,125.11Z"/></g></g></svg>