<svg xmlns="http://www.w3.org/2000/svg" viewBox="0 0 144 144"><defs><style>.cls-1,.cls-2,.cls-3{fill:none;}.cls-2,.cls-3{stroke:#fff;stroke-linecap:round;stroke-width:4px;}.cls-2{stroke-miterlimit:10;}.cls-3{stroke-linejoin:round;}.cls-4,.cls-5{fill:#fff;}.cls-4{isolation:isolate;}</style></defs><title>usb_locked</title><g id="Layer_2" data-name="Layer 2"><g id="Icon"><rect class="cls-1" width="144" height="144"/><path class="cls-2" d="M72,106H20a6,6,0,0,1-6-6V44a6,6,0,0,1,6-6h80a6,6,0,0,1,6,6V69"/><path class="cls-3" d="M122,64h-8"/><path class="cls-2" d="M107,50h19a4,4,0,0,1,4,4V76.79"/><path id="USB_Icon" data-name="USB Icon" class="cls-4" d="M36,74H50c1.93.39,2.66,1.36,3.7,3.07A23.13,23.13,0,0,1,55,80a8.69,8.69,0,0,0,8,6h9v3H82V79H72v3H69a34.27,34.27,0,0,1-7.16-.37,5.89,5.89,0,0,1-3.53-3.07,11.8,11.8,0,0,1-.93-2.23,4.16,4.16,0,0,0-1.26-2.25L56,74H87v4l10-6L87,66v4H49.13a31.2,31.2,0,0,0,2.48-2.89C54,64.26,55.6,62,61,62h5V58H61c-7.06,0-9.86,3.74-12.47,6.83C46.19,67.61,44.33,70,39.7,70H36"/><circle class="cls-5" cx="68" cy="60" r="5"/><circle class="cls-5" cx="30" cy="72" r="7"/><path class="cls-5" d="M116.27,91.94a4,4,0,0,0-4-4h-7a4,4,0,0,0-4,4v4.92h15Z"/><path class="cls-5" d="M118,100.86H99.57a4,4,0,0,0-4,4v13.08a4,4,0,0,0,4,4H118a4,4,0,0,0,4-4V104.86A4,4,0,0,0,118,100.86Zm-7.2,12.29v4.71a2,2,0,0,1-4,0v-4.71a3.52,3.52,0,1,1,4,0Z"/><path class="cls-5" d="M108.77,76.23a28.71,28.71,0,1,0,28.7,28.71A28.71,28.71,0,0,0,108.77,76.23ZM126,117.94a8,8,0,0,1-8,8H99.57a8,8,0,0,1-8-8V104.86a8,8,0,0,1,5.7-7.66V91.94a8,8,0,0,1,8-8h7a8,8,0,0,1,8,8V97.2a8,8,0,0,1,5.7,7.66Z"/></g></g></svg>