<svg xmlns="http://www.w3.org/2000/svg" viewBox="0 0 144 144"><defs><style>.cls-1,.cls-5{fill:#fff;}.cls-2,.cls-3,.cls-4{fill:none;}.cls-3,.cls-4{stroke:#fff;stroke-linecap:round;stroke-width:4px;}.cls-3{stroke-miterlimit:10;}.cls-4{stroke-linejoin:round;}.cls-5{isolation:isolate;}</style></defs><title>usb_warning</title><g id="Layer_2" data-name="Layer 2"><g id="Icon"><path class="cls-1" d="M94.64,117.11H123l-14.2-27.94Zm14.2-2.67a2.36,2.36,0,1,1,2.36-2.36A2.36,2.36,0,0,1,108.84,114.44Zm2.36-13.6v4.48a2.36,2.36,0,0,1-4.72,0v-4.48a2.36,2.36,0,0,1,4.72,0Z"/><path class="cls-1" d="M108.84,76.4a28.71,28.71,0,1,0,28.7,28.71A28.7,28.7,0,0,0,108.84,76.4Zm16.4,44.71H92.44a2.72,2.72,0,0,1-2.29-4L106.8,84.35a2.3,2.3,0,0,1,4.08,0l16.65,32.75A2.72,2.72,0,0,1,125.24,121.11Z"/><rect class="cls-2" width="144" height="144"/><path class="cls-3" d="M72,106H20a6,6,0,0,1-6-6V44a6,6,0,0,1,6-6h80a6,6,0,0,1,6,6V69"/><path class="cls-4" d="M122,64h-8"/><path class="cls-3" d="M107,50h19a4,4,0,0,1,4,4V76.79"/><path id="USB_Icon" data-name="USB Icon" class="cls-5" d="M36,74H50c1.93.39,2.66,1.36,3.7,3.07A23.13,23.13,0,0,1,55,80a8.69,8.69,0,0,0,8,6h9v3H82V79H72v3H69a34.27,34.27,0,0,1-7.16-.37,5.89,5.89,0,0,1-3.53-3.07,11.8,11.8,0,0,1-.93-2.23,4.16,4.16,0,0,0-1.26-2.25L56,74H87v4l10-6L87,66v4H49.13a31.2,31.2,0,0,0,2.48-2.89C54,64.26,55.6,62,61,62h5V58H61c-7.06,0-9.86,3.74-12.47,6.83C46.19,67.61,44.33,70,39.7,70H36"/><circle class="cls-1" cx="68" cy="60" r="5"/><circle class="cls-1" cx="30" cy="72" r="7"/></g></g></svg>