<svg xmlns="http://www.w3.org/2000/svg" viewBox="0 0 144 144"><defs><style>.cls-1,.cls-2,.cls-3,.cls-4{fill:none;}.cls-2,.cls-3,.cls-4{stroke:#fff;stroke-width:4px;}.cls-2,.cls-4{stroke-miterlimit:10;}.cls-3,.cls-4{stroke-linecap:round;}.cls-3{stroke-linejoin:round;}.cls-5,.cls-6{fill:#fff;}.cls-5{isolation:isolate;}</style></defs><title>usb_normal</title><g id="Layer_2" data-name="Layer 2"><g id="Icon"><rect class="cls-1" width="144" height="144"/><rect class="cls-2" x="26" y="26" width="68" height="92" rx="6" transform="translate(132 12) rotate(90)"/><path class="cls-3" d="M122,64h-8"/><path class="cls-3" d="M122,80h-8"/><path class="cls-4" d="M107,50h19a4,4,0,0,1,4,4V89.79A4.22,4.22,0,0,1,125.79,94H107"/><path id="USB_Icon" data-name="USB Icon" class="cls-5" d="M36,74H50c1.93.39,2.66,1.36,3.7,3.07A23.13,23.13,0,0,1,55,80a8.69,8.69,0,0,0,8,6h9v3H82V79H72v3H69a34.27,34.27,0,0,1-7.16-.37,5.89,5.89,0,0,1-3.53-3.07,11.8,11.8,0,0,1-.93-2.23,4.16,4.16,0,0,0-1.26-2.25L56,74H87v4l10-6L87,66v4H49.13a31.2,31.2,0,0,0,2.48-2.89C54,64.26,55.6,62,61,62h5V58H61c-7.06,0-9.86,3.74-12.47,6.83C46.19,67.61,44.33,70,39.7,70H36"/><circle class="cls-6" cx="68" cy="60" r="5"/><circle class="cls-6" cx="30" cy="72" r="7"/></g></g></svg>