<svg xmlns="http://www.w3.org/2000/svg" viewBox="0 0 48 48"><defs><style>.cls-1{fill:none;}.cls-2{fill:#fff;}</style></defs><title>warning_s</title><g id="Layer_2" data-name="Layer 2"><g id="Icon"><rect class="cls-1" width="48" height="48"/><path class="cls-2" d="M9.1,39a.35.35,0,0,1-.3-.2.63.63,0,0,1,0-.61L24.12,7.78s0-.06.09-.06a.07.07,0,0,1,.08.06l15.34,30.4a.64.64,0,0,1,0,.62.35.35,0,0,1-.3.2ZM22,30a3.4,3.4,0,0,0-1,2.4v.2A3.4,3.4,0,0,0,24.4,36h.2A3.4,3.4,0,0,0,28,32.6v-.2A3.4,3.4,0,0,0,27,30a3.4,3.4,0,0,0,1-2.4V20.4A3.4,3.4,0,0,0,24.6,17h-.2A3.4,3.4,0,0,0,21,20.4v7.2A3.4,3.4,0,0,0,22,30Z"/><path class="cls-2" d="M25.9,8.68h0M24.21,12l1.55,3.09A4.91,4.91,0,0,0,24.6,15h-.2a5.19,5.19,0,0,0-1.85.33L24.21,12M19,22.37V27.6a5.36,5.36,0,0,0,.56,2.4A5.36,5.36,0,0,0,19,32.4v.2A5.41,5.41,0,0,0,21.27,37H11.62L19,22.37m11,1.16L36.79,37H27.73A5.41,5.41,0,0,0,30,32.6v-.2a5.36,5.36,0,0,0-.56-2.4A5.36,5.36,0,0,0,30,27.6V23.53M24.21,5.72a2.08,2.08,0,0,0-1.88,1.16L7,37.28A2.52,2.52,0,0,0,9.1,41H39.31a2.52,2.52,0,0,0,2.1-3.72L26.08,6.88a2.08,2.08,0,0,0-1.87-1.16ZM24.4,29A1.4,1.4,0,0,1,23,27.6V20.4A1.4,1.4,0,0,1,24.4,19h.2A1.4,1.4,0,0,1,26,20.4v7.2A1.4,1.4,0,0,1,24.6,29Zm0,5A1.4,1.4,0,0,1,23,32.6v-.2A1.4,1.4,0,0,1,24.4,31h.2A1.4,1.4,0,0,1,26,32.4v.2A1.4,1.4,0,0,1,24.6,34Z"/><rect class="cls-1" width="48" height="48"/></g></g></svg>