<svg xmlns="http://www.w3.org/2000/svg" viewBox="0 0 48 48"><g id="Icon"><circle cx="24" cy="34" r="2" fill="#fff"/><path d="M24,32a2,2,0,1,0,2,2,2,2,0,0,0-2-2Z" fill="#fff"/><polygon points="24 27.5 24 19.5 24 27.5 24 27.5" fill="#fff"/><path d="M24,17.5a2,2,0,0,0-2,2v8a2,2,0,0,0,4,0v-8a2,2,0,0,0-2-2Z" fill="#fff"/><rect x="-0.04" y="0.19" width="48.04" height="48.04" fill="none"/><rect x="-0.04" y="0.19" width="48.04" height="48.04" fill="none"/><path d="M6.3,38.21A2.57,2.57,0,0,0,8.46,42H39.54a2.57,2.57,0,0,0,2.16-3.79l-15.77-31a2.17,2.17,0,0,0-3.86,0Z" fill="none" stroke="#fff" stroke-linecap="round" stroke-linejoin="round" stroke-width="4"/></g></svg>