<?xml version="1.0" encoding="utf-8"?>
<!-- Generator: Adobe Illustrator 24.1.1, SVG Export Plug-In . SVG Version: 6.00 Build 0)  -->
<svg version="1.1" id="Layer_1" xmlns="http://www.w3.org/2000/svg" xmlns:xlink="http://www.w3.org/1999/xlink" x="0px" y="0px"
	 viewBox="0 0 48 48" style="enable-background:new 0 0 48 48;" xml:space="preserve">
<style type="text/css">
	.st0{fill:#FFFFFF;}
	.st1{fill:none;}
	.st2{fill:none;stroke:#FFFFFF;stroke-width:4;stroke-linecap:round;stroke-linejoin:round;}
</style>
<g id="Icon">
	<circle class="st0" cx="24" cy="34" r="2"/>
	<path class="st0" d="M24,32c-1.1,0-2,0.9-2,2s0.9,2,2,2s2-0.9,2-2S25.1,32,24,32z"/>
	<polygon class="st0" points="24,27.5 24,19.5 24,27.5 	"/>
	<path class="st0" d="M24,17.5c-1.1,0-2,0.9-2,2v8c0,1.1,0.9,2,2,2s2-0.9,2-2v-8C26,18.4,25.1,17.5,24,17.5z"/>
	<rect x="0" y="0.2" class="st1" width="48" height="48"/>
	<rect x="0" y="0.2" class="st1" width="48" height="48"/>
	<path class="st2" d="M6.3,38.2c-0.7,1.2-0.2,2.8,1,3.5C7.7,41.9,8.1,42,8.5,42h31.1c1.4-0.1,2.5-1.3,2.5-2.7c0-0.4-0.1-0.8-0.3-1.1
		l-15.8-31c-0.5-1.1-1.9-1.5-2.9-0.9c-0.4,0.2-0.7,0.5-0.9,0.9L6.3,38.2z"/>
</g>
</svg>
