<svg xmlns="http://www.w3.org/2000/svg" viewBox="0 0 68 68"><defs><style>.cls-1{fill:#fff;}.cls-2{fill:none;stroke-width:6px;}.cls-2,.cls-3{stroke:#000;}.cls-3{stroke-miterlimit:10;stroke-width:2px;}</style></defs><title>warning_m</title><g id="Layer_2" data-name="Layer 2"><g id="Icon"><g id="Ellipse_117" data-name="Ellipse 117"><circle class="cls-1" cx="34" cy="34" r="28.7"/><circle class="cls-2" cx="34" cy="34" r="31"/></g><rect class="cls-3" x="32.64" y="39.62" width="2.72" height="2.72" rx="1.36"/><rect class="cls-3" x="32.64" y="28.38" width="2.72" height="7.2" rx="1.36"/><path d="M35.53,15.06h0m-1.53,3L48.2,46H19.8L34,18.07M34,12a2.26,2.26,0,0,0-2,1.24L15.31,46a2.72,2.72,0,0,0,2.29,4H50.4a2.72,2.72,0,0,0,2.29-4L36,13.24A2.26,2.26,0,0,0,34,12Z"/></g></g></svg>