<?xml version="1.0" encoding="utf-8"?>
<!-- Generator: Adobe Illustrator 24.1.1, SVG Export Plug-In . SVG Version: 6.00 Build 0)  -->
<svg version="1.1" id="Layer_1" xmlns="http://www.w3.org/2000/svg" xmlns:xlink="http://www.w3.org/1999/xlink" x="0px" y="0px"
	 viewBox="0 0 48 48" style="enable-background:new 0 0 48 48;" xml:space="preserve">
<style type="text/css">
	.st0{fill:none;}
	.st1{fill:#FFFFFF;stroke:#FFFFFF;stroke-width:4;stroke-linecap:round;stroke-linejoin:round;}
</style>
<g id="Icon">
	<rect y="-0.1" class="st0" width="48" height="48"/>
	<path class="st1" d="M41.7,38.2l-15.8-31c-0.5-1.1-1.9-1.5-2.9-0.9c-0.4,0.2-0.7,0.5-0.9,0.9l-15.8,31c-0.7,1.2-0.2,2.8,1,3.5
		C7.7,41.9,8.1,42,8.5,42h31.1c1.4-0.1,2.5-1.3,2.5-2.7C42,38.9,41.9,38.6,41.7,38.2z"/>
	<rect y="-0.1" class="st0" width="48" height="48"/>
	<circle cx="24" cy="34" r="2"/>
	<path d="M24,29.5L24,29.5c-1.2-0.2-2.1-1.3-2-2.5v-7.5c-0.1-1.2,0.8-2.3,2-2.5l0,0c1.2,0.2,2.1,1.3,2,2.5V27
		C26.1,28.2,25.2,29.3,24,29.5z"/>
</g>
</svg>
