<svg id="Group_3803" data-name="Group 3803" xmlns="http://www.w3.org/2000/svg" width="68" height="68" viewBox="0 0 68 68">
  <rect id="Rectangle_3082" data-name="Rectangle 3082" width="68" height="68" transform="translate(0 0)" fill="none"/>
  <g id="Group_3802" data-name="Group 3802">
    <path id="Path_1251" data-name="Path 1251" d="M30,8a12.675,12.675,0,0,1,9,4,11.355,11.355,0,0,1,3,8" fill="none" stroke="#fff" stroke-linecap="round" stroke-miterlimit="10" stroke-width="4" fill-rule="evenodd"/>
    <path id="Path_1252" data-name="Path 1252" d="M30,15a4.724,4.724,0,0,1,5,5" fill="none" stroke="#fff" stroke-linecap="round" stroke-miterlimit="10" stroke-width="4" fill-rule="evenodd"/>
    <path id="Path_1253" data-name="Path 1253" d="M37,46H49" fill="none" stroke="#fff" stroke-linecap="round" stroke-miterlimit="10" stroke-width="4"/>
    <path id="Path_1254" data-name="Path 1254" d="M46,34h3" fill="none" stroke="#fff" stroke-linecap="round" stroke-miterlimit="10" stroke-width="4"/>
    <path id="Path_1255" data-name="Path 1255" d="M19,45h2" fill="none" stroke="#fff" stroke-linecap="round" stroke-miterlimit="10" stroke-width="4"/>
    <rect id="Rectangle_3083" data-name="Rectangle 3083" width="18" height="31" rx="4" transform="translate(11 21)" fill="none" stroke="#fff" stroke-miterlimit="10" stroke-width="4"/>
    <path id="Path_1256" data-name="Path 1256" d="M37,27H53a4,4,0,0,1,4,4V50a4,4,0,0,1-4,4H46" fill="none" stroke="#fff" stroke-linecap="round" stroke-miterlimit="10" stroke-width="4" fill-rule="evenodd"/>
    <path id="Path_1257" data-name="Path 1257" d="M45,47v9a4,4,0,0,1-4,4H21" fill="none" stroke="#fff" stroke-linecap="round" stroke-miterlimit="10" stroke-width="4" fill-rule="evenodd"/>
  </g>
</svg>
