<svg xmlns="http://www.w3.org/2000/svg" viewBox="0 0 160 160"><defs><style>.cls-1{fill:#fff;}</style></defs><title>copy_pressed</title><g id="Layer_2" data-name="Layer 2"><g id="Icon"><path class="cls-1" d="M105,51a4,4,0,0,0,4,4h16.17L105,34.83Z"/><path class="cls-1" d="M80,0a80,80,0,1,0,80,80A80,80,0,0,0,80,0Zm5.47,64.29a2,2,0,1,1,3.06-2.58l11,13a2,2,0,0,1,0,2.58l-11,13a2,2,0,0,1-3.06-2.58L93.69,78H62a2,2,0,0,1,0-4H93.69ZM84,132H36a8,8,0,0,1-8-8V52a8,8,0,0,1,8-8H59a2,2,0,0,1,0,4H36a4,4,0,0,0-4,4v72a4,4,0,0,0,4,4H84a4,4,0,0,0,4-4,2,2,0,0,1,4,0A8,8,0,0,1,84,132ZM57,91H42a2,2,0,0,1,0-4H57a2,2,0,0,1,0,4Zm2,12a2,2,0,0,1-2,2H42a2,2,0,0,1,0-4H57A2,2,0,0,1,59,103ZM40,76a2,2,0,0,1,2-2H52a2,2,0,0,1,0,4H42A2,2,0,0,1,40,76Zm92,32a8,8,0,0,1-8,8H75a8,8,0,0,1-8-8V88a2,2,0,0,1,4,0v20a4,4,0,0,0,4,4h49a4,4,0,0,0,4-4V59H109a8,8,0,0,1-8-8V32H75a4,4,0,0,0-4,4V63a2,2,0,0,1-4,0V36a8,8,0,0,1,8-8h26.34a6,6,0,0,1,4.25,1.76l24.65,24.65A6,6,0,0,1,132,58.66Z"/></g></g></svg>