<?xml version="1.0" encoding="iso-8859-1"?>
<!-- Generator: Adobe Illustrator 19.0.0, SVG Export Plug-In . SVG Version: 6.00 Build 0)  -->
<svg version="1.1" id="Capa_1" xmlns="http://www.w3.org/2000/svg" xmlns:xlink="http://www.w3.org/1999/xlink" x="0px" y="0px"
	 viewBox="0 0 512 512" style="enable-background:new 0 0 512 512;" xml:space="preserve">
<g>
	<g>
		<path d="M437.02,74.98C388.667,26.629,324.38,0,256,0S123.332,26.628,74.98,74.98C26.629,123.333,0,187.62,0,256
			s26.628,132.668,74.98,181.02C123.333,485.371,187.62,512,256,512s132.668-26.628,181.02-74.98
			C485.371,388.667,512,324.38,512,256S485.372,123.332,437.02,74.98z M256,482.462C131.129,482.462,29.538,380.871,29.538,256
			S131.129,29.538,256,29.538S482.462,131.129,482.462,256S380.871,482.462,256,482.462z"/>
	</g>
</g>
<g>
	<g>
		<path d="M256,182.154c-40.719,0-73.846,33.127-73.846,73.846s33.127,73.846,73.846,73.846s73.846-33.127,73.846-73.846
			S296.719,182.154,256,182.154z M256,300.308c-24.431,0-44.308-19.876-44.308-44.308s19.876-44.308,44.308-44.308
			s44.308,19.876,44.308,44.308S280.431,300.308,256,300.308z"/>
	</g>
</g>
<g>
	<g>
		<path d="M325.52,127.402l-59.077-59.077c-5.768-5.768-15.12-5.768-20.887,0l-59.077,59.077c-5.768,5.768-5.768,15.119,0,20.887
			s15.12,5.768,20.887,0L256,99.656l48.634,48.633c2.883,2.885,6.663,4.326,10.443,4.326c3.78,0,7.56-1.441,10.443-4.326
			C331.288,142.521,331.288,133.17,325.52,127.402z"/>
	</g>
</g>
<g>
	<g>
		<path d="M325.521,363.711c-5.768-5.768-15.12-5.768-20.887,0L256,412.344l-48.633-48.634c-5.768-5.768-15.12-5.768-20.887,0
			c-5.768,5.768-5.768,15.119,0,20.887l59.077,59.077C248.44,446.559,252.22,448,256,448s7.56-1.441,10.444-4.325l59.077-59.077
			C331.289,378.83,331.289,369.479,325.521,363.711z"/>
	</g>
</g>
<g>
	<g>
		<path d="M443.674,245.556l-59.077-59.077c-5.768-5.768-15.12-5.768-20.887,0c-5.768,5.768-5.768,15.119,0,20.887L412.344,256
			l-48.633,48.633c-5.768,5.768-5.768,15.119,0,20.887c2.883,2.885,6.663,4.326,10.443,4.326c3.78,0,7.56-1.441,10.443-4.326
			l59.077-59.077C449.441,260.675,449.441,251.324,443.674,245.556z"/>
	</g>
</g>
<g>
	<g>
		<path d="M99.656,256l48.634-48.634c5.768-5.768,5.768-15.119,0-20.887s-15.12-5.768-20.887,0l-59.077,59.077
			c-5.768,5.768-5.768,15.119,0,20.887l59.077,59.077c2.883,2.885,6.663,4.326,10.443,4.326c3.78,0,7.56-1.441,10.443-4.325
			c5.768-5.768,5.768-15.119,0-20.887L99.656,256z"/>
	</g>
</g>
<g>
</g>
<g>
</g>
<g>
</g>
<g>
</g>
<g>
</g>
<g>
</g>
<g>
</g>
<g>
</g>
<g>
</g>
<g>
</g>
<g>
</g>
<g>
</g>
<g>
</g>
<g>
</g>
<g>
</g>
</svg>
