<?xml version="1.0" encoding="utf-8"?>
<!-- Generator: Adobe Illustrator 23.1.0, SVG Export Plug-In . SVG Version: 6.00 Build 0)  -->
<svg version="1.1" xmlns="http://www.w3.org/2000/svg" xmlns:xlink="http://www.w3.org/1999/xlink" x="0px" y="0px"
	 viewBox="0 0 144 144" style="enable-background:new 0 0 144 144;" xml:space="preserve">
<style type="text/css">
	.st0{display:none;}
	.st1{display:inline;}
	.st2{fill:none;stroke:#FF0000;stroke-width:8.000000e-02;stroke-miterlimit:10;}
	.st3{opacity:0.37;fill:#FF0000;}
	.st4{fill:none;stroke:#FF0000;stroke-width:0.1;stroke-miterlimit:10;}
	.st5{display:inline;opacity:0.37;}
	.st6{fill:none;stroke:#FFFFFF;stroke-width:4;stroke-miterlimit:10;}
	.st7{opacity:0.3;}
	.st8{fill:#FFFFFF;}
	.st9{opacity:0.7;}
	.st10{opacity:0.5;fill:#FF0000;}
	.st11{fill:none;stroke:#FF0000;stroke-width:6.000000e-02;stroke-miterlimit:10;}
	.st12{fill:none;stroke:#FF0000;stroke-width:2.833333e-02;stroke-miterlimit:10;}
	.st13{display:inline;fill:none;}
	.st14{display:inline;opacity:0.37;fill:#FF0000;}
	.st15{fill:none;stroke:#FF0000;stroke-width:4.002251e-02;stroke-miterlimit:10;}
	.st16{fill:none;stroke:#FF0000;stroke-width:4.002224e-02;stroke-miterlimit:10;}
	.st17{display:inline;fill:none;stroke:#FF0000;stroke-width:0.1;stroke-miterlimit:10;}
	.st18{fill:none;}
	.st19{fill:none;stroke:#FFFFFF;stroke-width:2;stroke-linecap:round;stroke-linejoin:round;stroke-miterlimit:10;}
	.st20{fill:none;stroke:#FFFFFF;stroke-width:2;stroke-linecap:round;stroke-miterlimit:10;}
	.st21{fill:#7EC7FC;stroke:#FFFFFF;stroke-width:2;stroke-linecap:round;stroke-miterlimit:10;}
	.st22{fill:none;stroke:#FFFFFF;stroke-width:4;stroke-linecap:round;stroke-miterlimit:10;}
	.st23{fill-rule:evenodd;clip-rule:evenodd;fill:none;stroke:#FFFFFF;stroke-width:4;stroke-linecap:round;stroke-miterlimit:10;}
	.st24{fill:none;stroke:#FFFFFF;stroke-width:4;stroke-linecap:round;stroke-linejoin:round;stroke-miterlimit:10;}
	.st25{fill:#FFFFFF;stroke:#FFFFFF;stroke-width:4;stroke-linecap:round;stroke-linejoin:round;stroke-miterlimit:10;}
	.st26{fill:none;stroke:#000000;stroke-width:4;stroke-linecap:round;stroke-linejoin:round;stroke-miterlimit:10;}
	.st27{fill:#FFFFFF;stroke:#FFFFFF;stroke-width:4;stroke-miterlimit:10;}
	.st28{fill:none;stroke:#FFFFFF;stroke-width:4;stroke-linecap:round;stroke-linejoin:round;}
	.st29{fill-rule:evenodd;clip-rule:evenodd;fill:none;stroke:#FFFFFF;stroke-width:2;stroke-linecap:round;stroke-miterlimit:10;}
	.st30{fill:none;stroke:#FFFFFF;stroke-width:2;stroke-miterlimit:10;}
	.st31{fill-rule:evenodd;clip-rule:evenodd;fill:none;stroke:#FFFFFF;stroke-width:2;stroke-miterlimit:10;}
	.st32{fill:none;stroke:#FFFFFF;stroke-width:4;stroke-linecap:round;stroke-linejoin:round;stroke-dasharray:7.7535,7.7535;}
	.st33{display:none;fill:none;stroke:#FFFFFF;stroke-width:4;stroke-linecap:round;stroke-linejoin:round;stroke-miterlimit:10;}
	.st34{fill:#FFFFFF;enable-background:new    ;}
	.st35{fill-rule:evenodd;clip-rule:evenodd;fill:none;stroke:#FFFFFF;stroke-width:4;stroke-miterlimit:10;}
	
		.st36{fill-rule:evenodd;clip-rule:evenodd;fill:none;stroke:#FCFCFC;stroke-width:4;stroke-linecap:round;stroke-linejoin:round;stroke-miterlimit:10;}
	.st37{fill:none;stroke:#EF7700;stroke-width:2;stroke-miterlimit:10;}
	.st38{opacity:0.15;fill:#FF0000;}
	.st39{fill:none;stroke:#FF0000;stroke-width:2.001000e-02;stroke-miterlimit:10;}
	.st40{fill:none;stroke:#FF0000;stroke-width:2.001126e-02;stroke-miterlimit:10;}
	.st41{fill:none;stroke:#FF0000;stroke-width:2.001112e-02;stroke-miterlimit:10;}
	.st42{fill:none;stroke:#FF0000;stroke-width:4.000000e-02;stroke-miterlimit:10;}
	.st43{fill:none;stroke:#FFFFFF;stroke-width:2;stroke-linecap:round;stroke-linejoin:round;}
	.st44{fill:none;stroke:#FFFFFF;stroke-width:2;stroke-linejoin:round;}
	.st45{fill:none;stroke:#FFFFFF;stroke-width:1.5;stroke-miterlimit:10;}
	.st46{fill-rule:evenodd;clip-rule:evenodd;fill:#FFFFFF;stroke:#FFFFFF;stroke-width:2;stroke-miterlimit:10;}
	.st47{fill:#3CC5FF;stroke:#3CC5FF;stroke-width:2;stroke-linecap:round;stroke-linejoin:round;stroke-miterlimit:10;}
	.st48{fill:none;stroke:#FFFFFF;stroke-width:3.7;stroke-linecap:round;stroke-linejoin:round;stroke-miterlimit:10;}
	.st49{fill:#FFFFFF;stroke:#FFFFFF;stroke-width:2;stroke-linecap:round;stroke-linejoin:round;stroke-miterlimit:10;}
	.st50{fill:none;stroke:#000000;stroke-width:3.7;stroke-linecap:round;stroke-linejoin:round;stroke-miterlimit:10;}
	.st51{fill:#30F2AA;}
	.st52{fill:none;stroke:#30F2AA;stroke-width:2;stroke-linecap:round;stroke-linejoin:round;stroke-miterlimit:10;}
	.st53{fill:#3CC5FF;}
	.st54{fill:none;stroke:#F9EF5F;stroke-width:2;stroke-linecap:round;stroke-linejoin:round;stroke-miterlimit:10;}
	.st55{fill:#FF7373;}
	.st56{fill:none;stroke:#FF7373;stroke-width:2;stroke-linecap:round;stroke-miterlimit:10;}
	.st57{opacity:0.3;fill:none;stroke:#FFFFFF;stroke-width:4;stroke-miterlimit:10;}
	.st58{fill:none;stroke:#000000;stroke-width:2;stroke-linecap:round;stroke-linejoin:round;stroke-miterlimit:10;}
	.st59{fill:none;stroke:#FFFFFF;stroke-width:2;stroke-linejoin:round;stroke-miterlimit:10;}
	.st60{fill:#FFFFFF;stroke:#FFFFFF;stroke-width:2;stroke-linejoin:round;stroke-miterlimit:10;}
	.st61{fill:#3CC5FF;stroke:#3CC5FF;stroke-width:2;stroke-linejoin:round;stroke-miterlimit:10;}
	.st62{fill:#FF7373;stroke:#FF7373;stroke-width:2;stroke-linejoin:round;stroke-miterlimit:10;}
	.st63{fill:#FF7373;stroke:#FF7373;stroke-width:2;stroke-linecap:round;stroke-linejoin:round;stroke-miterlimit:10;}
	.st64{fill:#F9EF5F;stroke:#F9EF5F;stroke-width:2;stroke-linejoin:round;stroke-miterlimit:10;}
	.st65{fill:#F9EF5F;stroke:#F9EF5F;stroke-width:2;stroke-linecap:round;stroke-linejoin:round;stroke-miterlimit:10;}
	.st66{fill:#F9EF5F;}
	
		.st67{fill:none;stroke:#FFFFFF;stroke-width:2;stroke-linecap:round;stroke-linejoin:round;stroke-miterlimit:10;stroke-dasharray:3,6;}
	
		.st68{fill:none;stroke:#FFFFFF;stroke-width:2;stroke-linecap:round;stroke-linejoin:round;stroke-miterlimit:10;stroke-dasharray:4,6;}
	.st69{fill-rule:evenodd;clip-rule:evenodd;fill:#FCFCFC;}
</style>
<g id="Layer_1" class="st0">
	<rect class="st1" width="144" height="144"/>
</g>
<g id="Grid" class="st0">
	<g class="st5">
		<path class="st6" d="M104,130H40c-3.3,0-6-2.7-6-6V20c0-3.3,2.7-6,6-6h64c3.3,0,6,2.7,6,6v104C110,127.3,107.3,130,104,130z"/>
		<g class="st7">
			<path class="st8" d="M99.4,126.8h-56c-4.7,0-8.4-3.8-8.4-8.4c0,0-0.1-22.5,0-21.9c33.7-9.1,42.1,19.1,72.8,11.3
				c0.5,0,0,10.6,0,10.6C107.8,123.1,104.1,126.8,99.4,126.8z"/>
		</g>
		<g class="st9">
			<path class="st8" d="M44.6,126.8h56c4.7,0,8.4-3.8,8.4-8.5V99c0,0-14.7-3.2-36.8,0c-14.3,2.1-22.6,8.6-36,8.6
				c-0.5,0,0,10.8,0,10.8C36.2,123,39.9,126.8,44.6,126.8z"/>
		</g>
		<g>
			<path class="st8" d="M101.3,129.7H41.5c-4.6,0-8.4-3.8-8.4-8.6v-13.6c0,0,16.7-3.2,38.7,0c14.3,2.1,24.5,8.6,37.9,8.6
				c0.5,0,0,5.1,0,5.1C109.7,125.8,106,129.7,101.3,129.7z"/>
		</g>
	</g>
	<g class="st1">
		<path class="st10" d="M76,72v68h68V72H76z M138,134H82V78h56V134z"/>
		<path class="st11" d="M135,128H85c-1.7,0-3-1.3-3-3V87c0-1.7,1.3-3,3-3h50c1.7,0,3,1.3,3,3v38C138,126.7,136.7,128,135,128z"/>
		<path class="st11" d="M132,81v50c0,1.7-1.3,3-3,3H91c-1.7,0-3-1.3-3-3V81c0-1.7,1.3-3,3-3h38C130.7,78,132,79.3,132,81z"/>
		<path class="st11" d="M135,84v44c0,1.7-1.3,3-3,3H88c-1.7,0-3-1.3-3-3V84c0-1.7,1.3-3,3-3h44C133.7,81,135,82.3,135,84z"/>
		<line class="st12" x1="110" y1="78" x2="110" y2="134"/>
		<line class="st12" x1="138" y1="106" x2="82" y2="106"/>
	</g>
	<g class="st1">
		<path class="st3" d="M-0.2,0.3l0.5,144l144-0.5l-0.5-144L-0.2,0.3z M132.2,131.8l-120,0.4l-0.4-120l120-0.4L132.2,131.8z"/>
		<path class="st4" d="M124.2,115.8l-104,0.4c-4.4,0-8-3.6-8-8l-0.2-72c0-4.4,3.6-8,8-8l104-0.4c4.4,0,8,3.6,8,8l0.2,72
			C132.1,112.2,128.6,115.8,124.2,115.8z"/>
		<path class="st4" d="M115.8,19.8l0.4,104c0,4.4-3.6,8-8,8l-72,0.2c-4.4,0-8-3.6-8-8l-0.4-104c0-4.4,3.6-8,8-8l72-0.2
			C112.2,11.9,115.8,15.4,115.8,19.8z"/>
		<path class="st4" d="M123.8,27.8l0.3,88c0,4.4-3.6,8-8,8l-88,0.3c-4.4,0-8-3.6-8-8l-0.3-88c0-4.4,3.6-8,8-8l88-0.3
			C120.2,19.8,123.8,23.4,123.8,27.8z"/>
	</g>
</g>
<g id="Outline_Path">
</g>
<g id="Icon">
	<g>
		<rect class="st18" width="144" height="144"/>
		<g id="Group_1181_1_">
			<rect id="Rectangle_992_3_" class="st18" width="144" height="144"/>
		</g>
		<g>
			<rect x="76" y="72" class="st18" width="68" height="68"/>
			<g>
				<path d="M88.4,134c-2.2,0-4.2-1.1-5.4-3.1c-1.2-2-1.3-4.5-0.3-6.6l21.9-43.4c1-2,3.1-3.3,5.4-3.3s4.3,1.3,5.4,3.3l21.9,43.4
					c1.1,2.1,1,4.6-0.3,6.6c-1.2,1.9-3.2,3.1-5.4,3.1H88.4z"/>
				<path d="M110,80.6c1.1,0,2.1,0.5,2.7,1.6l21.9,43.4c1.2,2.4-0.4,5.3-3,5.3H88.4c-2.6,0-4.2-2.9-3-5.3l21.9-43.4
					C107.9,81.1,108.9,80.6,110,80.6 M110,74.6c-3.4,0-6.5,1.9-8,4.9L80.1,123c-1.5,3-1.4,6.6,0.4,9.5c1.7,2.8,4.7,4.5,8,4.5h43.2
					c3.3,0,6.2-1.7,8-4.5c1.8-2.9,1.9-6.5,0.4-9.5L118,79.5C116.5,76.5,113.4,74.6,110,74.6L110,74.6z"/>
			</g>
			<g>
				<path class="st8" d="M110.1,121h-0.3c-1,0-1.9-0.8-1.9-1.9v-0.3c0-1,0.8-1.9,1.9-1.9h0.3c1,0,1.9,0.8,1.9,1.9v0.3
					C112,120.2,111.2,121,110.1,121z"/>
				<path class="st8" d="M110,114L110,114c-1.1,0-2-0.9-2-2v-11c0-1.1,0.9-2,2-2l0,0c1.1,0,2,0.9,2,2v11
					C112,113.1,111.1,114,110,114z"/>
			</g>
			<rect x="76" y="72" class="st18" width="68" height="68"/>
			<g>
				<path class="st8" d="M110.9,84L110.9,84L110.9,84 M110,85.8l20.8,41.2H89.2L110,85.8 M110,80.6c-1.1,0-2.1,0.5-2.7,1.6
					l-21.9,43.4c-1.2,2.4,0.4,5.3,3,5.3h43.2c2.6,0,4.2-2.9,3-5.3l-21.9-43.4C112.1,81.1,111.1,80.6,110,80.6L110,80.6z"/>
			</g>
		</g>
	</g>
</g>
<g id="grid-proselect">
</g>
<g id="icon-proselect">
</g>
<g id="text-proselect">
</g>
<g id="Layer_7">
</g>
</svg>
