<?xml version="1.0" encoding="utf-8"?>
<!-- Generator: Adobe Illustrator 23.1.0, SVG Export Plug-In . SVG Version: 6.00 Build 0)  -->
<svg version="1.1" xmlns="http://www.w3.org/2000/svg" xmlns:xlink="http://www.w3.org/1999/xlink" x="0px" y="0px"
	 viewBox="0 0 144 144" style="enable-background:new 0 0 144 144;" xml:space="preserve">
<style type="text/css">
	.st0{display:none;}
	.st1{display:inline;}
	.st2{fill:none;stroke:#FF0000;stroke-width:8.000000e-02;stroke-miterlimit:10;}
	.st3{opacity:0.37;fill:#FF0000;}
	.st4{fill:none;stroke:#FF0000;stroke-width:0.1;stroke-miterlimit:10;}
	.st5{display:inline;opacity:0.37;}
	.st6{fill:none;stroke:#FFFFFF;stroke-width:4;stroke-miterlimit:10;}
	.st7{opacity:0.3;}
	.st8{fill:#FFFFFF;}
	.st9{opacity:0.7;}
	.st10{opacity:0.5;fill:#FF0000;}
	.st11{fill:none;stroke:#FF0000;stroke-width:6.000000e-02;stroke-miterlimit:10;}
	.st12{fill:none;stroke:#FF0000;stroke-width:2.833333e-02;stroke-miterlimit:10;}
	.st13{display:inline;fill:none;}
	.st14{display:inline;opacity:0.37;fill:#FF0000;}
	.st15{fill:none;stroke:#FF0000;stroke-width:4.002251e-02;stroke-miterlimit:10;}
	.st16{fill:none;stroke:#FF0000;stroke-width:4.002224e-02;stroke-miterlimit:10;}
	.st17{display:inline;fill:none;stroke:#FF0000;stroke-width:0.1;stroke-miterlimit:10;}
	.st18{fill:none;}
	.st19{fill:none;stroke:#FFFFFF;stroke-width:2;stroke-linecap:round;stroke-linejoin:round;stroke-miterlimit:10;}
	.st20{fill:none;stroke:#FFFFFF;stroke-width:2;stroke-linecap:round;stroke-miterlimit:10;}
	.st21{fill:#7EC7FC;stroke:#FFFFFF;stroke-width:2;stroke-linecap:round;stroke-miterlimit:10;}
	.st22{fill:none;stroke:#FFFFFF;stroke-width:4;stroke-linecap:round;stroke-miterlimit:10;}
	.st23{fill-rule:evenodd;clip-rule:evenodd;fill:none;stroke:#FFFFFF;stroke-width:4;stroke-linecap:round;stroke-miterlimit:10;}
	.st24{fill:none;stroke:#FFFFFF;stroke-width:4;stroke-linecap:round;stroke-linejoin:round;stroke-miterlimit:10;}
	.st25{fill:#FFFFFF;stroke:#FFFFFF;stroke-width:4;stroke-linecap:round;stroke-linejoin:round;stroke-miterlimit:10;}
	.st26{fill:none;stroke:#000000;stroke-width:4;stroke-linecap:round;stroke-linejoin:round;stroke-miterlimit:10;}
	.st27{fill:#FFFFFF;stroke:#FFFFFF;stroke-width:4;stroke-miterlimit:10;}
	.st28{fill:none;stroke:#FFFFFF;stroke-width:4;stroke-linecap:round;stroke-linejoin:round;}
	.st29{fill-rule:evenodd;clip-rule:evenodd;fill:none;stroke:#FFFFFF;stroke-width:2;stroke-linecap:round;stroke-miterlimit:10;}
	.st30{fill:none;stroke:#FFFFFF;stroke-width:2;stroke-miterlimit:10;}
	.st31{fill-rule:evenodd;clip-rule:evenodd;fill:none;stroke:#FFFFFF;stroke-width:2;stroke-miterlimit:10;}
	.st32{fill:none;stroke:#FFFFFF;stroke-width:4;stroke-linecap:round;stroke-linejoin:round;stroke-dasharray:7.7535,7.7535;}
	.st33{display:none;fill:none;stroke:#FFFFFF;stroke-width:4;stroke-linecap:round;stroke-linejoin:round;stroke-miterlimit:10;}
	.st34{fill:#FFFFFF;enable-background:new    ;}
	.st35{fill-rule:evenodd;clip-rule:evenodd;fill:none;stroke:#FFFFFF;stroke-width:4;stroke-miterlimit:10;}
	
		.st36{fill-rule:evenodd;clip-rule:evenodd;fill:none;stroke:#FCFCFC;stroke-width:4;stroke-linecap:round;stroke-linejoin:round;stroke-miterlimit:10;}
	.st37{fill:none;stroke:#EF7700;stroke-width:2;stroke-miterlimit:10;}
	.st38{opacity:0.15;fill:#FF0000;}
	.st39{fill:none;stroke:#FF0000;stroke-width:2.001000e-02;stroke-miterlimit:10;}
	.st40{fill:none;stroke:#FF0000;stroke-width:2.001126e-02;stroke-miterlimit:10;}
	.st41{fill:none;stroke:#FF0000;stroke-width:2.001112e-02;stroke-miterlimit:10;}
	.st42{fill:none;stroke:#FF0000;stroke-width:4.000000e-02;stroke-miterlimit:10;}
	.st43{fill:none;stroke:#FFFFFF;stroke-width:2;stroke-linecap:round;stroke-linejoin:round;}
	.st44{fill:none;stroke:#FFFFFF;stroke-width:2;stroke-linejoin:round;}
	.st45{fill:none;stroke:#FFFFFF;stroke-width:1.5;stroke-miterlimit:10;}
	.st46{fill-rule:evenodd;clip-rule:evenodd;fill:#FFFFFF;stroke:#FFFFFF;stroke-width:2;stroke-miterlimit:10;}
	.st47{fill:#3CC5FF;stroke:#3CC5FF;stroke-width:2;stroke-linecap:round;stroke-linejoin:round;stroke-miterlimit:10;}
	.st48{fill:none;stroke:#FFFFFF;stroke-width:3.7;stroke-linecap:round;stroke-linejoin:round;stroke-miterlimit:10;}
	.st49{fill:#FFFFFF;stroke:#FFFFFF;stroke-width:2;stroke-linecap:round;stroke-linejoin:round;stroke-miterlimit:10;}
	.st50{fill:none;stroke:#000000;stroke-width:3.7;stroke-linecap:round;stroke-linejoin:round;stroke-miterlimit:10;}
	.st51{fill:#30F2AA;}
	.st52{fill:none;stroke:#30F2AA;stroke-width:2;stroke-linecap:round;stroke-linejoin:round;stroke-miterlimit:10;}
	.st53{fill:#3CC5FF;}
	.st54{fill:none;stroke:#F9EF5F;stroke-width:2;stroke-linecap:round;stroke-linejoin:round;stroke-miterlimit:10;}
	.st55{fill:#FF7373;}
	.st56{fill:none;stroke:#FF7373;stroke-width:2;stroke-linecap:round;stroke-miterlimit:10;}
	.st57{opacity:0.3;fill:none;stroke:#FFFFFF;stroke-width:4;stroke-miterlimit:10;}
	.st58{fill:none;stroke:#000000;stroke-width:2;stroke-linecap:round;stroke-linejoin:round;stroke-miterlimit:10;}
	.st59{fill:none;stroke:#FFFFFF;stroke-width:2;stroke-linejoin:round;stroke-miterlimit:10;}
	.st60{fill:#FFFFFF;stroke:#FFFFFF;stroke-width:2;stroke-linejoin:round;stroke-miterlimit:10;}
	.st61{fill:#3CC5FF;stroke:#3CC5FF;stroke-width:2;stroke-linejoin:round;stroke-miterlimit:10;}
	.st62{fill:#FF7373;stroke:#FF7373;stroke-width:2;stroke-linejoin:round;stroke-miterlimit:10;}
	.st63{fill:#FF7373;stroke:#FF7373;stroke-width:2;stroke-linecap:round;stroke-linejoin:round;stroke-miterlimit:10;}
	.st64{fill:#F9EF5F;stroke:#F9EF5F;stroke-width:2;stroke-linejoin:round;stroke-miterlimit:10;}
	.st65{fill:#F9EF5F;stroke:#F9EF5F;stroke-width:2;stroke-linecap:round;stroke-linejoin:round;stroke-miterlimit:10;}
	.st66{fill:#F9EF5F;}
	
		.st67{fill:none;stroke:#FFFFFF;stroke-width:2;stroke-linecap:round;stroke-linejoin:round;stroke-miterlimit:10;stroke-dasharray:3,6;}
	
		.st68{fill:none;stroke:#FFFFFF;stroke-width:2;stroke-linecap:round;stroke-linejoin:round;stroke-miterlimit:10;stroke-dasharray:4,6;}
	.st69{fill-rule:evenodd;clip-rule:evenodd;fill:#FCFCFC;}
</style>
<g id="Layer_1" class="st0">
	<rect class="st1" width="144" height="144"/>
</g>
<g id="Grid" class="st0">
	<g class="st1">
		<path class="st3" d="M0,0v144h144V0H0z M132,132H12V12h120V132z"/>
		<path class="st4" d="M124,116H20c-4.4,0-8-3.6-8-8V36c0-4.4,3.6-8,8-8h104c4.4,0,8,3.6,8,8v72C132,112.4,128.4,116,124,116z"/>
		<path class="st4" d="M116,20v104c0,4.4-3.6,8-8,8H36c-4.4,0-8-3.6-8-8V20c0-4.4,3.6-8,8-8h72C112.4,12,116,15.6,116,20z"/>
		<path class="st4" d="M124,28v88c0,4.4-3.6,8-8,8H28c-4.4,0-8-3.6-8-8V28c0-4.4,3.6-8,8-8h88C120.4,20,124,23.6,124,28z"/>
	</g>
</g>
<g id="Outline_Path">
	<rect class="st18" width="144" height="144"/>
</g>
<g id="Icon">
	<g>
		<path class="st6" d="M108,130H36c-3.3,0-6-2.7-6-6V20c0-3.3,2.7-6,6-6h72c3.3,0,6,2.7,6,6v104C114,127.3,111.3,130,108,130z"/>
		<g class="st7">
			<path class="st8" d="M102.3,126.8H40.4c-5.1,0-9.3-3.8-9.3-8.4c0,0-0.1-22.5,0-21.9c37.2-9.1,46.5,19.1,80.5,11.3
				c0.5,0,0,10.6,0,10.6C111.6,123.1,107.4,126.8,102.3,126.8z"/>
		</g>
		<g class="st9">
			<path class="st8" d="M41.7,126.8h61.9c5.1,0,9.3-3.8,9.3-8.5V99c0,0-16.3-3.2-40.7,0c-15.9,2.1-25,8.6-39.8,8.6
				c-0.5,0,0,10.8,0,10.8C32.4,123,36.6,126.8,41.7,126.8z"/>
		</g>
		<g>
			<path class="st8" d="M104.4,129.7H38.3c-5.1,0-9.3-3.8-9.3-8.6v-13.6c0,0,18.4-3.2,42.8,0c15.8,2.1,27.1,8.6,41.9,8.6
				c0.5,0,0,5.1,0,5.1C113.7,125.8,109.5,129.7,104.4,129.7z"/>
		</g>
	</g>
</g>
<g id="grid-proselect">
</g>
<g id="icon-proselect">
</g>
<g id="text-proselect">
</g>
<g id="Layer_7">
</g>
</svg>
